<svg xmlns="http://www.w3.org/2000/svg" viewBox="0 0 545.02 172.72"><defs><style>.cls-1{fill:#333;}.cls-2{fill:#004ca1;}.cls-3{fill:#4d4d4d;}</style></defs><g id="レイヤー_2" data-name="レイヤー 2"><g id="レイヤー_1-2" data-name="レイヤー 1"><path class="cls-1" d="M93.86,126.42v11.35h-5.8V126.42Z"/><path class="cls-1" d="M126.73,47.53c13.93,0,19.34,8.77,19.34,21.92v9.79c0,14.31-6.57,21.4-20.88,21.4H114v37.13H108V47.53Zm-1.54,47.7c10.44,0,14.95-4.64,14.95-15.6V69.06c0-9.8-3.35-16.11-13.41-16.11H114V95.23Z"/><path class="cls-1" d="M193.38,47.53c13.79,0,19.34,7.61,19.34,20.37v7.86c0,10.57-4.13,16.63-13,18.69,9.28,2.07,13,8.64,13,18.44v14c0,3.74.25,7.86,2.19,10.83h-6.19c-1.55-2.71-1.93-5.93-1.93-10.83V112.76c0-12-6.58-15.34-16.89-15.34h-9.41v40.35h-5.93V47.53ZM190,92c10.57,0,16.76-3,16.76-15.08V68.41c0-9.66-3.74-15.46-13.54-15.46H180.49V92Z"/><path class="cls-1" d="M243.27,69.57c0-13.14,6.06-22.81,19.72-22.81,13.92,0,20,9.67,20,22.81v46.15c0,13.15-6.06,22.82-20,22.82-13.66,0-19.72-9.67-19.72-22.82Zm5.93,46.54c0,9.8,3.86,17,13.79,17s14.05-7.22,14.05-17V69.19c0-9.8-4-17-14.05-17s-13.79,7.22-13.79,17Z"/><path class="cls-2" d="M42.69,63l-15.56-.14-6.3-.06a9.54,9.54,0,0,0-9.37,7.28h0l31,.34A10.47,10.47,0,0,1,52.82,81h0A10.48,10.48,0,0,1,42.25,91.33l-35.9-.39-6,24.65a11,11,0,0,0,10.58,13.6h0l7.55-30.87,24.16.23A17.79,17.79,0,1,0,42.69,63Z"/><path class="cls-2" d="M326.72,139.71H326l-.2,2.32v7l.49,2.61-.49,1.06L326,154a21.82,21.82,0,0,0-.48,3.53,12.88,12.88,0,0,1-1.64,5.35,6.32,6.32,0,0,1-2,3.38h-.67l-.68,1.16-.38.48L318,169l-.29.39v.29a2.11,2.11,0,0,1-.48,1.06l-1.63.29a.77.77,0,0,1-.38.14,2.45,2.45,0,0,1-.49,0l-1.53.87-1.06-.19L312,172h-1.16l-1.15.68-1.25-1-1.92-1-1.06-.2-.67-.58-2-.28-.86-.87-.58-.29-2.89-1.64-.86-.68-.58-.87-.77-.29-.28-.38a1.7,1.7,0,0,1-1.16-.87l-.19-.29c-.25-.45-.61-1.06-1.06-1.84L292,160.65l-.78-1.25-.77-.19-1.16-2.61a4.18,4.18,0,0,1-.38-1.64,2.83,2.83,0,0,1,.58-1.74l3.1.19,1.36,1.93,1.84,1.15.39.87,1.51.65v1l.6.1.31.72,1.53.77.58.39.67.39.87.87,2.3,1.17,1.34.09v.68a9.57,9.57,0,0,0,1.16.49h.39a2.52,2.52,0,0,1,1.25.38,1.79,1.79,0,0,1,1.16.39h.67a5.75,5.75,0,0,0,1.16-.19,8.52,8.52,0,0,1,1.93-1.16l1.64-1.06.2-.58,1.16-.87-.1-.48.1-.39v-.19l.57-.87,1-2.32-.48-1,1.25-3.86v-1.74l-.77-.77a6.43,6.43,0,0,1,1.74-2.61,15.09,15.09,0,0,1-1-3.76l.29-.29-.29-.19v-.49a8.55,8.55,0,0,1,.68-3l-.68-2,.39-1.25-1.06-2.32,1-.67-.29-.39v-4.92a4.41,4.41,0,0,1-.38-1.83,6.91,6.91,0,0,1,.38-2.22v-.29l.39-3-1.16-3.37.48-1.55-.48-2.51.39-.67-.78-4.63v-4.73l-.48-1.06.1-.68-.58-1.45,1-1a6.82,6.82,0,0,1,.68-.77c.51-1.87,1.45-2.8,2.8-2.8a2.62,2.62,0,0,1,2.51,1.93,2.2,2.2,0,0,1,2.41,2.31l.19,2.32-.58,1.06v1.54l.29,1.07-.87,2.31.58,1.55-.58,2.89.58,3.86-.58,1.26a4.38,4.38,0,0,1,.58,1.73,2.65,2.65,0,0,1-.58,1.64,43.26,43.26,0,0,0,1,5.41v1.35l-.39,3.19a9.27,9.27,0,0,1,.68,3.57,17.88,17.88,0,0,1-.19,2.22Zm2.12-66.88L326.92,74l-.48.87-.76.29a4.53,4.53,0,0,1-2,1.93l-2.11,2.7-1.15.58-.48,1.45h-.29A13.31,13.31,0,0,1,315.13,86a10.06,10.06,0,0,1-1-4.35,14.14,14.14,0,0,1,.29-2.7l.94-1.54.66-1.64,1.52-1.35.76-1.84.56-1.25V69.36l2-.68.48-1.64h4.76v.68l.47.38a2.3,2.3,0,0,1,1.95,1.45Z"/><path class="cls-2" d="M394,132.67c0,.77-.57,1.7-1.73,2.79l-.78.29-.67.87-1.74.49c-.32.45-.64.67-1,.67a.28.28,0,0,1-.2-.1h-.29a11.28,11.28,0,0,1-5.11,1.07h-.77l-2.42-.49-1.64-.77L374,134.4l-.78-2.6-1.54-1.26a2.11,2.11,0,0,0,.29-1.25,4.83,4.83,0,0,0-.77-1.93l.29-2.32v-.38a9.2,9.2,0,0,0-.68-3l.58-2.89-1.25,2.51-1.45.19-.19,2a4.06,4.06,0,0,1-1.84.38l-1.06,2.32-1.25,1.45a2.62,2.62,0,0,1-1.36,1l-.29.2-3.47,3.57h-.39L357,134.57l-1.74.89-1,1.3-2.22.69-3.19,1.3-1.93-1a2.73,2.73,0,0,1-2.7-1.76l-.87-.48a4.6,4.6,0,0,1,.1-.78v-.69L342,132.7l.38-.59-1.16-2.73.39-.39v-.78a.84.84,0,0,1-.29-.49,9.07,9.07,0,0,1,.22-2l.07-2.54-.29-2a4,4,0,0,0,.29-1.35,2.2,2.2,0,0,0-.39-1.25l1.06-.77v-1.16l-.38-3.19,1.06-6.17a17.93,17.93,0,0,0-.87-4.54c.19-2.06,1.55-3.18,4.06-3.38l.77.29,1.35.2,1.74,1.93-.78,2.51v4.16l.29,3.19-.58,1.16.29.77-.77,1.54v2.13a18.23,18.23,0,0,1-.19,2.61l.19.68-.2,1.45.16,1.13,0,1.35a1.74,1.74,0,0,1,.77,1.45,2.19,2.19,0,0,1-.77,1.54v.39a9.71,9.71,0,0,1,.51,2.12l.91.87c.4-.26.87-.58,1.41-1a1.87,1.87,0,0,1,1.42-1.26v-1a9.54,9.54,0,0,0,1.83-.29l.2-.87,1.64-.68.28-.29a6.39,6.39,0,0,1,2.22-1.25v-.39l1.84-1.35A3.75,3.75,0,0,1,363.1,120a7.76,7.76,0,0,1,1.45-1.25l1.25-1.65v-.28l.39-.2.87-.39.48-1.35,2-.87.38-.09.68-.68v-.87l.56-.19a3.3,3.3,0,0,1,1.51-2.32l1.4-3.29.54-1.72.2-.37h.4l.7-.49-.58-.19a15.67,15.67,0,0,0,1.64-3.67l2.8-.09,2.22,1.83,1,1.54-1.06,4.15-1.45,1.93-1.16,3.77-1,.58v1.44l-.58,1.07.29,1.73-.77.68.38,3.09.2,4.34h.48v2.51l1.35,1.64L381,131l.09.48a7,7,0,0,1,1.64.48l2.42.19,1.44-.38,2.61-1.26a4.39,4.39,0,0,1,1.93-.38C393,130.16,394,131,394,132.67Z"/><path class="cls-2" d="M451.7,122.63a3.46,3.46,0,0,1-1.26,2l-1.06,1.64-.39,1.93-.87.29-.19.57a3.53,3.53,0,0,0-2.22,2.42,6.52,6.52,0,0,1-2.31,1.93,3.63,3.63,0,0,1-.87.67L442,135l-.86.19-2.51,1.36-3.29.38-.86-.19-1.45.29-.58-.68a6.27,6.27,0,0,1-1.93-1.35,2.63,2.63,0,0,1-1.74-1.83,5.57,5.57,0,0,1-1.64-3.09v-.29l-.67-1.16-.2-.19-.58-1.74-.86-1.83.19-2.22-1-1.26-1.44-8.3a15.72,15.72,0,0,1-.29-2.79l-.2-.49-.49-.67-.88,1.15-3.52,3.64-1.27,2-.62,1.38-1.05,1.54-.76.77.1.49-1.35,3-.77,1-1,.19-.87.87a2.41,2.41,0,0,1-1.83,2.51l-.19.19a4.67,4.67,0,0,1-1.93,2.61l-.87,1.35c-1.42,1.29-2.35,2.09-2.8,2.42a3.49,3.49,0,0,1-1.06,1.64,6.09,6.09,0,0,1-.68.77c-.19,1.1-1.09,1.87-2.7,2.32l-1.06.29A4,4,0,0,1,393.4,137L392,134.6l.58-2.32-.29-1.25.19-.2.1-1.25-1.07-2.32.78-1.16-.39-1.25.75-1.35.21-2.22-.28-.39.57-1.35-.21-.67-.08-1.55.29-2.89a6.26,6.26,0,0,1-.29-1.26v-.77l-.28-.77.28-3.09v-5.21l1.69-2.9a10,10,0,0,1,4,1.31,3.4,3.4,0,0,1,1.13,2.94v.87l.77,1.16-.39,2,.39,3.86-.68,1.84.29,2v1.64l-.87,1.06.87,1.74-.74,1.06-.13,1.06.58,1.07-.77,2-.29.87v.87l.48,1,1.65-1.64a2,2,0,0,1,1-1.94,1.89,1.89,0,0,1,.77-1.44l-.29-.29,1.26-1.16.29-.39v-.87l1.54-1.15.39-1,.87-.58,3.76-4.24c-.32.38-1.39,1.57-3.19,3.57v.19l.2-.68,1.25-1.44.87-1.64v-1l1.45-.48.19-1.26.39-.38.09-.48v-.68l1.36-1.35v-.48a1.42,1.42,0,0,1-.1-.39c0-1.16.64-1.8,1.93-1.93a3.48,3.48,0,0,1,2.6-2l.58-.87.2-.19a4.55,4.55,0,0,1,2.6-1.74l.87-1.06H424l1.16,1.35,1.06.58.09.29.68.2.19,2,1.64,1-.67,2.12,1.06,2.32v2.7l.77,3.67.19,3.47.87,2,.58,2.51a3.51,3.51,0,0,1,.87,1.64l1.74.48v1.93l1,1.06v.29l.39.1.38.58.39-.49c-.13,0,0,0,.48.1.71,0,1.45-.64,2.22-1.93l1.17-.26.29-.49a2,2,0,0,1,1.15-1.18l.68.1.38-.39.1-.48.29-.39a3.2,3.2,0,0,0,1.26-2l1.05-1.16.2-.87.67-1.55,1.84-.67,2.6.87.87,2.8a.26.26,0,0,0,.1.19Z"/><path class="cls-2" d="M473.41,124.17c0,1.48-.26,2.42-.77,2.8l-.48.39-.49,1.35-1.54.48a5.29,5.29,0,0,1-2,2.41l-.87.29L466,133.25l-1.16.28a2.86,2.86,0,0,1-2.8,1.84c-.13.19-.42.58-.87,1.16a6.79,6.79,0,0,1-3,1.15l-.48.1-.68.87h-1.93l-1.54,1.16-4-2.9-1.83-3.76-.1-4.73-.38-1.16,1.16-8.49.38-.39a14.4,14.4,0,0,1-.29-2.8,21.64,21.64,0,0,1,.58-3.57l.48-2.22a3.89,3.89,0,0,0-.77-1.25l.58-1.83.19-2.22.2-.29a6.22,6.22,0,0,1-.49-1.93,3.33,3.33,0,0,0,.2-.53,2.29,2.29,0,0,0,.09-.54,5.26,5.26,0,0,1-.29-1.64c0-1.54.87-2.25,2.61-2.12h1.16A5.65,5.65,0,0,1,454.5,97a2.62,2.62,0,0,1,2.6,2.12v.39a6.93,6.93,0,0,1,.39,2.22,2.93,2.93,0,0,1-.2,1.25l-.67,4.83.67,1.35a4.61,4.61,0,0,1-1.15,3.09l.38,1.15L455.27,117a26.09,26.09,0,0,1-.49,3.67v2.41l-.57,1.35.09,1-.19,2.22.19,1.73,1.45,1.16,1.16-.19.19-.29.77.1,1.25-.39,1.07-1.06.38-.58.68-.1.19-.48.29-.38.58.38,1-1,.58.09L464,126h.2l.27-.77.87-.39,1.84-.86a7.64,7.64,0,0,1,4.35-1.54H472A3.45,3.45,0,0,1,473.41,124.17ZM463.57,73c0,.77-.52,1.47-1.55,2.11v.19a6.61,6.61,0,0,1-3.19,2.5l-1.45,1.73-1,1.26-2.22.55-1,1.37-1.54.79-2.51,2.25-1.54-1.44.29-2.42L449,80.17a3,3,0,0,1,1.55-2.32v-.39l.58-.38.09-1.45,1.55-.39v-.86l1.16-.2a4.21,4.21,0,0,1,1.64-2.8l.29-.19.57-.58.78-2.32C461.44,69.32,463.57,70.89,463.57,73Z"/><path class="cls-2" d="M505.06,115.68l-.57,1.74a21.33,21.33,0,0,1-.29,4l-.58,1v1.06l-.49.68-.29,1.35-1.06,1.06-.67,2.41-.77.29-.39,1.06-1.16.68-.77,1.64-1.16.58-.1,1.16-1.83.67a5.5,5.5,0,0,1-3.09,2.22l-.38.1a4.14,4.14,0,0,1-3.57,2,4.32,4.32,0,0,1-2.22.57l-1,.68-1,.29-1.26,1h-1.25l-1.35.29-1.65-.67-4.14-.29-1.45-2.22-2.13-2.22.49-1.55-1.45-3.28.48-1.25-.29-2.32.29-1.44V125a3.39,3.39,0,0,1,1-2.71,10.49,10.49,0,0,1,1.3-3.18h.5l-.29-.68.29-1.35v-1.45a5.48,5.48,0,0,0,.87-1.15l-.29-1.36v-.38a6.21,6.21,0,0,0,.68-2.8l2-2.8c.32-.26.55-.45.68-.58l-.1-.38h.39l1.44-1.64.1-2.22,2.41-.87a4.19,4.19,0,0,0,1.74-2.9H484a4.14,4.14,0,0,1,1.93-.58,3.63,3.63,0,0,1,1.64.39l1.06.1,2.51-1,1.35,1.26,1.06.67h.77l1.45.77h.77a31,31,0,0,1,2.9,3.19l.19.48.68.39,2,2.6,1.84,4.54v1ZM498.69,118l-.09-.48a2.45,2.45,0,0,1-.77-1.44l.29-.48-.87-1.83.19-1.83-.39-.48c-.83-.64-1.28-1.16-1.35-1.54-.58-.26-.87-.9-.87-1.93l-.58-.1-1.15-1.92-.87-.68-2-.77-.77-.19a.78.78,0,0,1-.77-.38L486.73,106l-1.26,2.68-2,1.06-.29,1-1,.48-.38,2.5-1.16.57a9,9,0,0,0-.39,2.5l-1.54,1.43.48.29a2.63,2.63,0,0,1-1,2c-.22.57-.51,1.21-.86,1.91v2.31l-1.07,2.59.2.48v2.68l-.39,1.34.1,1.35.87,1.24,1.34.48.49.19h3.27l.39-1H483c.39,0,.61.1.68.29l.87-.29.77.29,1.25-.88.19-.29.87-.19a7,7,0,0,1,3.18-2.14l.19-.49,1.93-1.36,1.06-1.56,1.54-.77.11-.48.5-1.06V124l1.16-1,.38-.68.49-.57a6.08,6.08,0,0,1-.39-1.64,3.52,3.52,0,0,1,.58-1.83Z"/><path class="cls-2" d="M545,102.36l-.77,3.19-3.58.48-1.93,1.25-1.25-.57-1.35.75-1.45.56-1,.66,0,.38-2,1-1.35,1.76h-.68a12.86,12.86,0,0,1-2.21,2l-1.35,2.22-.49.19a22.62,22.62,0,0,0-.67,2.32l-1.35.48-.58,1.16-.77,1-.19,1.45-.77.29v1.45l-.29.29c.19.32.41.67.67,1.06l-1.45.58-.19,1.25-1,1.64.58,1.26-1.26,1.73a8.06,8.06,0,0,1,.19,1.35v.39a1.65,1.65,0,0,0-.09.48l.19.87,1.64,1.74-1.25,2.22-1.16.87-2.7,1.35L511.63,140v-2.22l-.39-.87.29-1.45a19.85,19.85,0,0,1-.19-2.31,4.43,4.43,0,0,1,.09-.77v-.68l-.09-1a2.1,2.1,0,0,1-.68-1.55,3.11,3.11,0,0,1,.68-1.74c0-.32-.07-1.28-.2-2.89l.29-.29-.29-1.26.2-1.15-.2-.68.29-2.22-.58-1,.39-1.07-.39-1.25a9.11,9.11,0,0,0,.1-1.54,3.28,3.28,0,0,0-.39-1.93l.39-.58-.39-1.74-.86-1.26.48-1.54-.39-.58-.38-2.31v-.78a2.11,2.11,0,0,1-.49-1.44q0-1.94,4.25-3.28l2.41.48.48,1.83,1,1.26-.29,2.6c.19,1.29.42,2.7.68,4.25l.29,1.54a5,5,0,0,1,.19,1.06,2.22,2.22,0,0,1-.48,1.26l.29,1.93-.2,2.12-.38,1,.29.38.19,1a2.64,2.64,0,0,0,.67-1.45l.39-1.45a1.93,1.93,0,0,1,.87-.87l.38-1.44,1.36-.78.19-1.15,1.06-1.16.77-1.45a6.13,6.13,0,0,1,2.42-1.74l.19-.29.87-1.35,1-.19.29-.29.39-.58,1.06-.58.58-.67.58.09.77-.38.39-.58,1.15-.58,1.64-1.06,2.32-.78,1.45-.19v.1c-.07,0-.1,0-.1.09h.1a3,3,0,0,0,1.16-.38,2.09,2.09,0,0,1,1.35-.39,8.27,8.27,0,0,1,1.35.2C543.89,100.11,544.82,100.88,545,102.36Z"/><path class="cls-3" d="M23.51,8.11c-1,4.29-2.54,9.64-4.92,12.8a30,30,0,0,0-3.34-1.78c2.3-2.91,3.74-7.94,4.34-11.68ZM30.84.89V23.07c0,2.1-.49,3.05-1.75,3.59s-3.31.66-6.1.66a15.76,15.76,0,0,0-1.35-3.56c1.87.08,4,.08,4.63.06s.86-.21.86-.75V.89Zm6.5,6.24C39.67,11.22,42,16.42,42.75,20L39,21.49C38.43,18,36.25,12.6,34,8.4Z"/><path class="cls-3" d="M74.07,19.85H63v3.82c0,1.79-.37,2.68-1.78,3.17a17.74,17.74,0,0,1-5.58.54,15.06,15.06,0,0,0-1.41-3.33c1.84.08,4,.08,4.54.05s.75-.11.75-.51V19.85h-11V16.68h11V14.81h1.64a19.55,19.55,0,0,0,2.22-1.58H53.61v-3H66.53l.75-.17,2.15,1.66a27.16,27.16,0,0,1-6.18,4.92H74.07ZM52.06,12H48.84V5h3.91a24.23,24.23,0,0,0-2-3L53.67.78a15.56,15.56,0,0,1,2.62,3.76l-1,.49h4.52A19.82,19.82,0,0,0,58,1.44L61,.35a16.61,16.61,0,0,1,2.24,4.14L61.84,5h4.34A24.24,24.24,0,0,0,68.66.66l3.71,1.12C71.59,2.91,70.76,4,70,5h3.83v7H70.41v-4H52.06Z"/><path class="cls-3" d="M106.59,23.18v3.37H80.73V23.18H91.84V17.4H84V14.09h7.8V9h-6a23.42,23.42,0,0,1-2.67,4.17,28.35,28.35,0,0,0-3.08-2A24.86,24.86,0,0,0,85.22.86l3.54.78c-.41,1.38-.87,2.73-1.35,4.05h4.43V.52h3.59V5.69h9.69V9H95.43v5.06H104V17.4h-8.6v5.78Z"/><path class="cls-3" d="M137.88,23.36c0,1.87-.4,2.84-1.61,3.39s-3.05.6-5.64.6a11.71,11.71,0,0,0-1.12-3.45c1.7.12,3.62.09,4.2.06s.72-.14.72-.66V8.63H117.51V27.32h-3.42v-22H122a39.38,39.38,0,0,0,1.52-4.8l4.35.6a45.51,45.51,0,0,1-2,4.2h12Zm-14.47-2.13v2h-3.08V11.42h11.22v9.81Zm0-6.82v3.83h5V14.41Z"/><path class="cls-3" d="M152.05,2.56a23.57,23.57,0,0,0-.66,2.3c-.69,3.16-1.7,9.12-.95,12.66.38-.87.86-2.25,1.33-3.28l1.81,1.12a71.08,71.08,0,0,0-1.93,7,7,7,0,0,0-.2,1.38c0,.29.06.78.09,1.18l-3.2.32A32,32,0,0,1,146.7,16a74.94,74.94,0,0,1,1-11.36,14.23,14.23,0,0,0,.18-2.47Zm18.27,8.28c-1.15.15-2.62.26-4.23.35v1.18c0,6.73-.52,10.84-6.18,14.47l-3.31-2.59A10.91,10.91,0,0,0,159.93,22c2.19-2.27,2.65-4.8,2.65-9.6v-1c-1.06,0-2.16.06-3.19.06-1.24,0-3-.09-4.4-.14V7.62a30.09,30.09,0,0,0,4.31.29c1,0,2.13,0,3.22-.06,0-1.58-.08-3-.14-3.82a12.16,12.16,0,0,0-.32-2h4.17A15.66,15.66,0,0,0,166.09,4c0,.63,0,2.1,0,3.65a36.28,36.28,0,0,0,4.29-.52Z"/><path class="cls-3" d="M196,4.43a12.33,12.33,0,0,0,1.64-.12,3,3,0,0,1-.06-.54A3.44,3.44,0,1,1,201,7.19a1.54,1.54,0,0,1-.37,0l-.23.86c-.67,2.82-1.9,7.28-4.32,10.47a22.71,22.71,0,0,1-11.56,7.94L181.41,23c5.73-1.35,9-3.83,11.28-6.76a18.44,18.44,0,0,0,3.39-8.11h-13.4c-1.32,0-2.68.06-3.42.11v-4a33.25,33.25,0,0,0,3.42.23Zm6.67-.66A1.66,1.66,0,1,0,201,5.41,1.67,1.67,0,0,0,202.67,3.77Z"/><path class="cls-3" d="M233.9,21.34c0,1.12.06,3.89.06,4h-4l0-1.58H216.15l0,1.58h-4c0-.14.09-2.65.09-4V7.25c0-.81,0-2-.06-2.79,1.18,0,2.27.06,3,.06h15.82c.72,0,1.81,0,2.85-.06-.06.86-.06,1.93-.06,2.79ZM216.15,8.17V20.1h13.9V8.17Z"/><path class="cls-3" d="M263.52,6.13,266,7.62a12,12,0,0,0-1,2,29,29,0,0,1-5,9.61,26.74,26.74,0,0,1-11.59,8.14L245,24.36a23,23,0,0,0,11.59-7.13,20.36,20.36,0,0,0,4.08-7.82h-8.11a31.68,31.68,0,0,1-7.25,7L242.09,14a24.69,24.69,0,0,0,9-9.23,12.78,12.78,0,0,0,1.29-3l4.23,1.38c-.69,1-1.44,2.3-1.78,2.93l-.09.15h5.78a9.08,9.08,0,0,0,2.5-.35l.2.12a32.11,32.11,0,0,0-2.1-3.72l2.28-.92a43.84,43.84,0,0,1,2.27,3.94ZM266.77,0a41.38,41.38,0,0,1,2.33,3.91l-2.3,1a28.06,28.06,0,0,0-2.3-4Z"/><path class="cls-3" d="M299.33,11.13a8.36,8.36,0,0,0-.55,1.21,20.63,20.63,0,0,1-4.26,8,21.57,21.57,0,0,1-10.27,6.21l-2.87-3.25a19.42,19.42,0,0,0,10-5,12.61,12.61,0,0,0,3-5H280.43c-.69,0-2.13,0-3.34.14V9.66c1.21.12,2.45.18,3.34.18h14.24a6,6,0,0,0,2.09-.29ZM279.74,2.79a23.26,23.26,0,0,0,3,.14H293.8a26.18,26.18,0,0,0,3.11-.14V6.5c-.78-.06-2.13-.09-3.16-.09h-11c-.92,0-2.16,0-3,.09Z"/><path class="cls-3" d="M328.8,22.61l-1.58,3.59c-3.88-1.61-13-3.59-17.57-4.28l1.43-3.63A115.48,115.48,0,0,1,328.8,22.61Zm-1.21-9-1.41,3.59a100.51,100.51,0,0,0-14.95-3.62l1.32-3.48A117.68,117.68,0,0,1,327.59,13.58Zm2-7.86-1.47,3.6a98.28,98.28,0,0,0-15.56-3.6l1.35-3.39A105.86,105.86,0,0,1,329.55,5.72Z"/><path class="cls-3" d="M352.38,18.38A27.31,27.31,0,0,0,362.85,7.19l2.24,4.06a30.55,30.55,0,0,1-10.64,10.64,31.15,31.15,0,0,1-10.67,4.05l-2.41-3.79A29.75,29.75,0,0,0,352.38,18.38Zm0-9.32-2.93,3a59.54,59.54,0,0,0-7.19-6.21L345,3A60.23,60.23,0,0,1,352.38,9.06Z"/><path class="cls-3" d="M392.93,6.13l2.45,1.49a12,12,0,0,0-.95,2,29,29,0,0,1-5,9.61,26.74,26.74,0,0,1-11.59,8.14l-3.39-3.05A23,23,0,0,0,386,17.23a20.36,20.36,0,0,0,4.08-7.82H382a31.68,31.68,0,0,1-7.25,7L371.5,14a24.69,24.69,0,0,0,9-9.23,12.78,12.78,0,0,0,1.29-3L386,3.08c-.69,1-1.44,2.3-1.78,2.93l-.09.15h5.78a9.08,9.08,0,0,0,2.5-.35l.2.12a32.11,32.11,0,0,0-2.1-3.72l2.28-.92a43.84,43.84,0,0,1,2.27,3.94ZM396.18,0a41.38,41.38,0,0,1,2.33,3.91l-2.3,1a28.06,28.06,0,0,0-2.3-4Z"/><path class="cls-3" d="M426.72,5.35a14.27,14.27,0,0,0-1,1.78A41.48,41.48,0,0,1,421.2,15a80.51,80.51,0,0,1,8,8.23L426,26.12A65.32,65.32,0,0,0,418.7,18a38,38,0,0,1-10.82,8.08l-3-3.11a32.49,32.49,0,0,0,11.79-8.25,22.29,22.29,0,0,0,4.29-7h-9.75c-1.21,0-2.79.17-3.4.2V3.77a33.61,33.61,0,0,0,3.4.2h10.12a10.4,10.4,0,0,0,3-.37Z"/><path class="cls-3" d="M460.94,7A12,12,0,0,0,460,9a29.82,29.82,0,0,1-5,9.61,27.14,27.14,0,0,1-11.62,8.11L440,23.7c5.89-1.75,9.08-4.26,11.59-7.1a20.56,20.56,0,0,0,4.08-7.86h-8.08a32.5,32.5,0,0,1-7.25,7l-3.22-2.38a25.4,25.4,0,0,0,9-9.26,14.16,14.16,0,0,0,1.3-3l4.2,1.38c-.69,1-1.41,2.3-1.76,2.93l-.08.14h5.78a9.27,9.27,0,0,0,2.5-.34Z"/><path class="cls-3" d="M470.09,11.53c1,.09,3.13.18,4.63.18h15.44c1.32,0,2.62-.12,3.37-.18v4.52c-.69,0-2.16-.14-3.37-.14H474.72c-1.64,0-3.57.05-4.63.14Z"/><path class="cls-3" d="M500.94,23.79a13.56,13.56,0,0,0,4.89-6.88c.81-2.47.84-7.91.84-11.39a10.55,10.55,0,0,0-.26-2.61h4.22a19.7,19.7,0,0,0-.2,2.58c0,3.4-.08,9.47-.86,12.37a16.7,16.7,0,0,1-5.12,8.26Zm13.32.43a11.37,11.37,0,0,0,.23-2.13V5.32a12.57,12.57,0,0,0-.23-2.47h4.28a15.7,15.7,0,0,0-.2,2.5v15a18.19,18.19,0,0,0,7.11-6.07l2.21,3.17a31.81,31.81,0,0,1-9.75,7.85,8,8,0,0,0-1.26.86Z"/></g></g></svg>