<svg xmlns="http://www.w3.org/2000/svg" width="915.089" height="198.167" viewBox="0 0 915.089 198.167">
  <g id="グループ_649" data-name="グループ 649" transform="translate(-252.455 -3940.013)">
    <g id="グループ_648" data-name="グループ 648">
      <g id="グループ_423" data-name="グループ 423" transform="translate(-10 89)">
        <text id="マイクラッチコース" transform="translate(720.955 4016.18)" fill="#fff" font-size="70" font-family="NotoSansJP-Black, Noto Sans JP" font-weight="800" letter-spacing="0.06em"><tspan x="-329.35" y="0">マイクラッチコース</tspan></text>
        <path id="マイクラッチコース_-_アウトライン" data-name="マイクラッチコース - アウトライン" d="M-153.16-60.05a1.25,1.25,0,0,1,.389.062l12.39,4.06a1.25,1.25,0,0,1,.8.8,1.25,1.25,0,0,1-.173,1.117c-1.079,1.5-2.191,3.291-3.177,4.95h9.092a24.986,24.986,0,0,0,6.562-.855,1.25,1.25,0,0,1,1.025.131l8.61,5.32a1.25,1.25,0,0,1,.419,1.7,29.428,29.428,0,0,0-2.619,5.495,83.014,83.014,0,0,1-4.415,10.855,66.2,66.2,0,0,1-7.913,12.5c-7.349,9.016-16.267,15.347-28.916,20.528a1.25,1.25,0,0,1-1.3-.222l-10.08-8.96a1.25,1.25,0,0,1-.391-1.2,1.25,1.25,0,0,1,.856-.929,67.69,67.69,0,0,0,17.3-7.7,50.89,50.89,0,0,0,10.486-9.157A45.334,45.334,0,0,0-135.65-36.97h-15.231a87.854,87.854,0,0,1-17.525,16.506,1.25,1.25,0,0,1-1.459-.023l-9.52-7.07a1.25,1.25,0,0,1-.5-1.058,1.25,1.25,0,0,1,.593-1.01A62.791,62.791,0,0,0-165.427-41.01a69.811,69.811,0,0,0,7.5-10.127l.006-.009a35.586,35.586,0,0,0,3.558-7.993,1.25,1.25,0,0,1,.615-.764A1.25,1.25,0,0,1-153.16-60.05Zm10.411,5.977-9.6-3.145a38.567,38.567,0,0,1-3.471,7.42,72.83,72.83,0,0,1-7.757,10.465,64.372,64.372,0,0,1-12.859,10.855l7.331,5.444A86.058,86.058,0,0,0-152.457-39a1.25,1.25,0,0,1,.977-.47h17.43a1.25,1.25,0,0,1,.967.458,1.25,1.25,0,0,1,.259,1.038,37.282,37.282,0,0,1-3.422,8.946,44.6,44.6,0,0,1-6.115,9.145A53.271,53.271,0,0,1-153.345-10.3a67.482,67.482,0,0,1-15.822,7.327l7.852,6.979c11.861-4.958,20.274-10.992,27.206-19.5,6.6-8.1,10.281-17.61,11.89-22.557l0-.009a29.659,29.659,0,0,1,2.23-4.917l-7.113-4.4a28.964,28.964,0,0,1-6.741.807h-11.27a1.25,1.25,0,0,1-1.082-.625,1.25,1.25,0,0,1,0-1.25C-145.216-50.129-144-52.2-142.749-54.073Zm-58.361-5a1.25,1.25,0,0,1,.863.346l9.17,8.75a1.25,1.25,0,0,1,.387.9,1.25,1.25,0,0,1-.378.9A136.093,136.093,0,0,1-209.38-33.421V-6.51a49.3,49.3,0,0,0,.652,9.807,1.25,1.25,0,0,1-.2,1.1,1.25,1.25,0,0,1-1,.5h-13.44a1.25,1.25,0,0,1-.946-.433,1.25,1.25,0,0,1-.29-1,93.143,93.143,0,0,0,.546-9.967V-25a138.209,138.209,0,0,1-22.068,8.636,1.25,1.25,0,0,1-1.464-.652l-5.25-10.71a1.25,1.25,0,0,1-.012-1.076,1.25,1.25,0,0,1,.828-.687A110.413,110.413,0,0,0-221.78-41.668a86.335,86.335,0,0,0,10.838-8.119,80.5,80.5,0,0,0,8.869-8.831,1.25,1.25,0,0,1,.889-.45Zm7.362,10L-201.017-56a96.837,96.837,0,0,1-19.459,16.469l-.005,0a111.6,111.6,0,0,1-29.441,12.078l4.113,8.39a139.43,139.43,0,0,0,22.437-9.072,1.25,1.25,0,0,1,1.219.051,1.25,1.25,0,0,1,.595,1.065V-6.51c0,2.689-.183,6.493-.409,8.9h10.524a76.237,76.237,0,0,1-.435-8.9V-34.09a1.25,1.25,0,0,1,.559-1.042A134.873,134.873,0,0,0-193.747-49.067ZM91.909-57.88a1.25,1.25,0,0,1,1,.5l6.93,9.31a1.25,1.25,0,0,1,.173,1.17,1.25,1.25,0,0,1-.88.791c-1.268.309-2.373.588-3.349.834-1.211.306-2.17.548-2.887.707-2.942.75-6.17,1.407-9.611,1.955V-35.2H98.77c1.3,0,4.756-.248,6.682-.415a1.25,1.25,0,0,1,.953.324,1.25,1.25,0,0,1,.405.921v10.85a1.25,1.25,0,0,1-.4.913,1.25,1.25,0,0,1-.937.334c-1.936-.129-4.424-.277-6.5-.277H82.787C81.025-10.147,74.851-.627,64.423,5.756a1.25,1.25,0,0,1-1.349-.028l-10.85-7.28a1.25,1.25,0,0,1-.549-1.142,1.25,1.25,0,0,1,.73-1.035c9.054-4.1,14.436-10.266,16.413-18.821H52.01c-2.136,0-4.905.149-6.628.277a1.25,1.25,0,0,1-.943-.331,1.25,1.25,0,0,1-.4-.916V-34.37a1.25,1.25,0,0,1,.411-.927,1.25,1.25,0,0,1,.963-.317c2,.2,4.322.414,6.526.414H69.59v-5.736c-6.477.457-12.7.685-16.51.745a1.25,1.25,0,0,1-1.226-.92l-2.66-9.73a1.25,1.25,0,0,1,.217-1.095,1.25,1.25,0,0,1,1-.485c1.255.016,2.5.025,3.708.025a148.323,148.323,0,0,0,20.167-1.13c7.985-1.205,13.887-2.667,17.069-4.227A1.246,1.246,0,0,1,91.909-57.88Zm4.8,9.8-5.205-6.993c-2.678,1.135-7.664,2.636-16.842,4.021A140.3,140.3,0,0,1,54.124-49.9c-.683,0-1.379,0-2.082-.008l1.967,7.2c3.981-.085,10.378-.34,16.737-.819a1.25,1.25,0,0,1,.944.33,1.25,1.25,0,0,1,.4.916v8.33a1.25,1.25,0,0,1-1.25,1.25H51.94c-1.819,0-3.685-.135-5.4-.293v8.136c1.7-.1,3.754-.193,5.47-.193H70.35a1.25,1.25,0,0,1,.959.448,1.25,1.25,0,0,1,.271,1.024,30.628,30.628,0,0,1-2.061,6.863,26.919,26.919,0,0,1-3.655,6.035,29.2,29.2,0,0,1-5.34,5.109,36.694,36.694,0,0,1-5.1,3.157L63.794,3.2A35.63,35.63,0,0,0,75.487-8.669a38.8,38.8,0,0,0,4.962-15.279,1.25,1.25,0,0,1,1.241-1.1H98.98c1.688,0,3.621.093,5.33.2v-8.161c-1.824.142-4.361.314-5.54.314H82.04a1.25,1.25,0,0,1-1.25-1.25v-9.73a1.25,1.25,0,0,1,1.063-1.236c3.765-.568,7.28-1.267,10.447-2.075L92.339-47c.684-.152,1.634-.392,2.837-.7ZM-50.19-55.85a1.25,1.25,0,0,1,.821.308,1.25,1.25,0,0,1,.429.942v10.92a1.25,1.25,0,0,1-.4.915,1.25,1.25,0,0,1-.941.332c-1.872-.134-5.658-.277-8.311-.277H-84.98c-2.406,0-5.7.072-7.716.274a1.251,1.251,0,0,1-.963-.317,1.25,1.25,0,0,1-.411-.927V-54.6a1.25,1.25,0,0,1,.431-.944,1.25,1.25,0,0,1,1-.293,66.519,66.519,0,0,0,7.663.407h26.53a77.974,77.974,0,0,0,8.089-.408A1.25,1.25,0,0,1-50.19-55.85Zm-1.25,10.842v-8.2c-2.226.191-5.23.279-7.01.279H-84.98c-1.914,0-4.547-.086-6.59-.271v8.168c2.031-.129,4.608-.177,6.59-.177h26.39C-56.351-45.21-53.476-45.116-51.44-45.008ZM312.13-54.17a1.25,1.25,0,0,1,.742.244l6.93,5.11a1.25,1.25,0,0,1,.286,1.718,37.8,37.8,0,0,0-2.754,4.9l0,.006a111.513,111.513,0,0,1-10.038,17.775,189.325,189.325,0,0,1,18.338,18.94,1.25,1.25,0,0,1-.151,1.729l-9.73,8.47a1.25,1.25,0,0,1-1.843-.224,134.949,134.949,0,0,0-15.685-18.132,103.176,103.176,0,0,1-11.435,9.995,83,83,0,0,1-13.736,8.474,1.25,1.25,0,0,1-1.443-.26l-8.82-9.17a1.25,1.25,0,0,1-.317-1.149,1.25,1.25,0,0,1,.79-.892A68.746,68.746,0,0,0,279.2-15.263a76.705,76.705,0,0,0,12.188-10.7A54.161,54.161,0,0,0,300.319-39.7H280.35c-2.322,0-5.086.238-7.1.412-.685.059-1.277.11-1.767.145a1.25,1.25,0,0,1-.941-.332,1.25,1.25,0,0,1-.4-.915V-52.43a1.25,1.25,0,0,1,.431-.944,1.25,1.25,0,0,1,1-.293,82.312,82.312,0,0,0,8.783.547h23.38a28.346,28.346,0,0,0,7.989-.981A1.249,1.249,0,0,1,312.13-54.17Zm5.243,6.669L311.9-51.54a33.721,33.721,0,0,1-8.166.92H280.35c-1.776,0-5.183-.15-7.71-.4v9.278l.392-.034c2.063-.178,4.889-.421,7.318-.421h21.77a1.25,1.25,0,0,1,1.012.517,1.25,1.25,0,0,1,.175,1.123,38.731,38.731,0,0,1-3.869,7.915,63.187,63.187,0,0,1-6.179,8.34l-.01.011a79.251,79.251,0,0,1-12.6,11.067A73.475,73.475,0,0,1,265.9-4.97l6.883,7.156a81.564,81.564,0,0,0,12.508-7.824A100.7,100.7,0,0,0,297.3-16.267a1.25,1.25,0,0,1,.878-.383,1.249,1.249,0,0,1,.891.351A141.955,141.955,0,0,1,315.147,1.934l7.775-6.768A188.622,188.622,0,0,0,304.8-23.275a1.25,1.25,0,0,1-.2-1.677,107.992,107.992,0,0,0,10.441-18.257A39.043,39.043,0,0,1,317.373-47.5Zm-587.5-4.639a1.25,1.25,0,0,1,.8.286l8.4,6.93a1.251,1.251,0,0,1,.449.851,1.25,1.25,0,0,1-.289.918c-.295.35-.576.676-.848.992a22.564,22.564,0,0,0-1.778,2.225,123.176,123.176,0,0,1-22.187,26.222c3.094,3.15,6.471,6.851,9.41,10.317a1.25,1.25,0,0,1,.291.93,1.25,1.25,0,0,1-.465.856l-10.01,7.98a1.25,1.25,0,0,1-.939.262,1.249,1.249,0,0,1-.842-.492,180.082,180.082,0,0,0-13.6-15.474,145.775,145.775,0,0,0-14.892-13.1,1.25,1.25,0,0,1-.523-.978,1.25,1.25,0,0,1,.461-1.009l8.96-7.28a1.25,1.25,0,0,1,1.546-.024c2.555,1.947,6.368,4.947,10.392,8.449A72.02,72.02,0,0,0-282.593-38.23H-315a78.506,78.506,0,0,0-8.441.618,1.25,1.25,0,0,1-.991-.3,1.25,1.25,0,0,1-.428-.942v-11.9a1.25,1.25,0,0,1,.454-.964,1.25,1.25,0,0,1,1.032-.264A61.954,61.954,0,0,0-315-51.23h37.17a26.6,26.6,0,0,0,7.319-.85A1.249,1.249,0,0,1-270.13-52.14Zm6.623,8.335-6.911-5.7a31.083,31.083,0,0,1-7.413.777H-315a65.808,65.808,0,0,1-7.36-.56v9.032c2.027-.218,5.113-.472,7.36-.472h34.65a1.25,1.25,0,0,1,1.084.628,1.25,1.25,0,0,1,0,1.253,65.178,65.178,0,0,1-6.55,9.078,73.965,73.965,0,0,1-9.206,9.107,1.25,1.25,0,0,1-1.62-.028c-3.869-3.41-7.609-6.39-10.281-8.446l-6.944,5.642A159.3,159.3,0,0,1-299.976-11.1l.007.007A193.126,193.126,0,0,1-286.921,3.617l8-6.378c-3-3.488-6.373-7.134-9.384-10.145a1.25,1.25,0,0,1-.365-.937,1.25,1.25,0,0,1,.443-.9A111.162,111.162,0,0,0-275.4-27.765a111.666,111.666,0,0,0,9.87-13.483l.017-.027a23.831,23.831,0,0,1,2-2.519ZM124.81-51.93q.062,0,.124.006c2.8.28,6.637.484,9.116.484h35.7c2.145,0,5.471-.134,6.567-.207a1.25,1.25,0,0,1,.956.352,1.25,1.25,0,0,1,.376.947l-.021.5c-.075,1.772-.188,4.45-.188,6.522V-7c0,2.213.13,6.186.346,9A1.25,1.25,0,0,1,176.54,3.35H164.22a1.25,1.25,0,0,1-1.25-1.25c0-.623.018-1.242.036-1.84q.006-.208.012-.41H133.56c-2.77,0-7.1.221-9.452.482a1.25,1.25,0,0,1-.972-.311,1.25,1.25,0,0,1-.416-.931V-13.02a1.25,1.25,0,0,1,.4-.917,1.25,1.25,0,0,1,.945-.329c2.676.206,5.856.416,9.144.416h29.9v-24.1H134.05c-3.156,0-7.075.143-9.159.277a1.25,1.25,0,0,1-.935-.336,1.25,1.25,0,0,1-.4-.912V-50.68a1.25,1.25,0,0,1,.411-.927A1.251,1.251,0,0,1,124.81-51.93Zm44.94,2.99h-35.7c-2.164,0-5.325-.15-7.99-.371v9.069c2.22-.11,5.366-.208,7.99-.208h30.31a1.25,1.25,0,0,1,1.25,1.25v26.6a1.25,1.25,0,0,1-1.25,1.25H133.21c-2.833,0-5.572-.151-7.99-.324v9.388c2.664-.223,6.2-.365,8.34-.365h30.73a1.25,1.25,0,0,1,1.25,1.25c0,.57-.018,1.162-.035,1.734Q165.5.59,165.49.85H175.2c-.165-2.694-.261-5.924-.261-7.85V-43.33c0-1.8.082-4.023.153-5.75C173.585-49.012,171.393-48.94,169.75-48.94ZM2.24-43.53a1.25,1.25,0,0,1,1.138.733C4.829-39.606,8.255-30.5,9.311-27.19a1.25,1.25,0,0,1-.783,1.562l-10.15,3.5A1.25,1.25,0,0,1-2.61-22.2a1.25,1.25,0,0,1-.623-.77A129.769,129.769,0,0,0-8.966-38.447,1.25,1.25,0,0,1-8.99-39.48a1.25,1.25,0,0,1,.762-.7l10.08-3.29A1.249,1.249,0,0,1,2.24-43.53Zm4.3,15.942c-1.178-3.438-3.606-9.873-4.995-13.151l-7.667,2.5c1.691,3.829,3.833,9.819,4.915,13.32ZM16.38-41.64a1.25,1.25,0,0,1,.383.06l11.97,3.85a1.25,1.25,0,0,1,.739.638,1.25,1.25,0,0,1,.055.974c-.965,2.689-1.436,4.3-1.934,6.008A58.047,58.047,0,0,1,18-9.809,56.126,56.126,0,0,1,6.594,1.357,55.777,55.777,0,0,1-6.273,8.447a1.25,1.25,0,0,1-1.342-.294l-8.89-9.1a1.25,1.25,0,0,1-.309-1.211,1.25,1.25,0,0,1,.895-.873,47.569,47.569,0,0,0,12-5.1A39.109,39.109,0,0,0,6.859-17.155a36.931,36.931,0,0,0,5.568-10.569,49.761,49.761,0,0,0,2.706-12.756,1.25,1.25,0,0,1,.548-.946A1.25,1.25,0,0,1,16.38-41.64Zm10.364,5.9-9.259-2.978C16.563-30.091,13.238-21.16,8.818-15.6A41.61,41.61,0,0,1-2.646-5.976a52.053,52.053,0,0,1-10.6,4.782l6.845,7.007A53.582,53.582,0,0,0,5.113-.657a53.634,53.634,0,0,0,10.9-10.671,55.591,55.591,0,0,0,9.168-19.449l.007-.023C25.6-32.21,26.024-33.661,26.744-35.743ZM-14-39.75a1.25,1.25,0,0,1,1.118.691c2.045,4.09,5.3,12.357,6.644,16.251a1.25,1.25,0,0,1-.746,1.579l-10.36,3.85a1.25,1.25,0,0,1-.985-.049,1.25,1.25,0,0,1-.643-.747c-1.212-3.848-4.538-12.874-6.337-16.073a1.25,1.25,0,0,1-.081-1.051,1.25,1.25,0,0,1,.751-.739l10.22-3.64A1.248,1.248,0,0,1-14-39.75Zm4.992,16.607c-1.362-3.779-3.826-9.991-5.627-13.8l-7.818,2.784a145.394,145.394,0,0,1,5.459,13.987ZM-51.31-39.12a1.25,1.25,0,0,1,.663.191l7.49,4.69a1.25,1.25,0,0,1,.439,1.648,26.2,26.2,0,0,0-1.457,3.167l0,.011A72.468,72.468,0,0,1-48.39-19.347a45.752,45.752,0,0,1-6.467,9.468A52.215,52.215,0,0,1-66.878.038,56.7,56.7,0,0,1-80.433,5.961a1.25,1.25,0,0,1-1.284-.373L-90.187-4a1.25,1.25,0,0,1-.25-1.22,1.25,1.25,0,0,1,.928-.83c9.67-2.046,18-6.176,23.455-11.631A26.325,26.325,0,0,0-60.517-25.7H-90.51c-1.819,0-5.715.073-8.779.345a1.25,1.25,0,0,1-.955-.323,1.25,1.25,0,0,1-.406-.922V-37.52a1.25,1.25,0,0,1,.405-.921,1.25,1.25,0,0,1,.953-.324c2.546.221,6.136.485,8.782.485h33.32a15.152,15.152,0,0,0,5.379-.735A1.249,1.249,0,0,1-51.31-39.12Zm5.855,6.391-6-3.755a19.863,19.863,0,0,1-5.738.7H-90.51c-2.285,0-5.222-.188-7.64-.381v8.21c2.863-.194,6.04-.249,7.64-.249h31.85a1.25,1.25,0,0,1,1.026.536,1.25,1.25,0,0,1,.147,1.148,28.822,28.822,0,0,1-6.8,10.6A40.508,40.508,0,0,1-74.433-8.68,56.83,56.83,0,0,1-86.92-4.08l6.549,7.415A54.179,54.179,0,0,0-68.17-2.1a49.722,49.722,0,0,0,11.447-9.439A43.289,43.289,0,0,0-50.608-20.5a70.047,70.047,0,0,0,4.064-9.721A22.774,22.774,0,0,1-45.455-32.729ZM194.67-34.85q.047,0,.094,0c2.709.2,8.59.487,12.017.487h37.17c2.375,0,4.888-.2,6.907-.363.588-.047,1.143-.091,1.617-.124a1.25,1.25,0,0,1,.939.333,1.25,1.25,0,0,1,.4.914v13.37a1.25,1.25,0,0,1-.383.9,1.251,1.251,0,0,1-.915.348c-.631-.024-1.484-.08-2.471-.144-1.884-.122-4.23-.275-6.091-.275H206.78c-3.959,0-9.22.212-12.019.417a1.25,1.25,0,0,1-.942-.331,1.25,1.25,0,0,1-.4-.916V-33.6a1.25,1.25,0,0,1,.4-.916A1.25,1.25,0,0,1,194.67-34.85Zm49.28,2.99H206.78c-2.991,0-7.816-.212-10.86-.4v10.7c2.937-.175,7.288-.335,10.86-.335h37.17c1.942,0,4.333.155,6.253.28l1.107.071v-10.7l-.254.02C249.1-32.074,246.425-31.86,243.95-31.86Z" transform="translate(720.955 4016.18)" fill="#e8373d"/>
        <g id="グループ_411" data-name="グループ 411" transform="translate(0 -146)">
          <path id="パス_189" data-name="パス 189" d="M445.382,5.4H68.991C39.971,5.4,20,21.536,20,41.449S39.971,77.5,68.929,77.5H312.762l38.194,15.235L346.526,77.5H445.32c28.958,0,48.929-16.136,48.929-36.049C494.311,21.536,474.34,5.4,445.382,5.4Z" transform="translate(462.875 3991.613)" fill="#f8b217"/>
          <g id="グループ_347" data-name="グループ 347" transform="translate(11.25 16)">
            <text id="の" transform="translate(816.75 4035.18)" fill="#1c1c1c" font-size="35" font-family="NotoSansJP-Medium, Noto Sans JP" font-weight="500"><tspan x="-17.5" y="0">の</tspan></text>
          </g>
        </g>
        <g id="グループ_398" data-name="グループ 398" transform="translate(-3.319 -146)">
          <path id="多角形_8" data-name="多角形 8" d="M7.412,14.7a1,1,0,0,1,2,0l7.339,108.164a1,1,0,0,1-1,1.068H1.07a1,1,0,0,1-1-1.068Z" transform="matrix(-0.695, 0.719, -0.719, -0.695, 376.864, 4177.186)" fill="#e8373d"/>
          <path id="多角形_9" data-name="多角形 9" d="M3.911,20.943a1,1,0,0,1,2,0l3.861,80.945a1,1,0,0,1-1,1.048H1.049a1,1,0,0,1-1-1.048Z" transform="translate(363.216 4186.281) rotate(115)" fill="#e8373d"/>
        </g>
        <g id="グループ_399" data-name="グループ 399" transform="translate(1065.455 3944.093)">
          <path id="多角形_8-2" data-name="多角形 8" d="M7.412,14.7a1,1,0,0,1,2,0l7.339,108.164a1,1,0,0,1-1,1.068H1.07a1,1,0,0,1-1-1.068Z" transform="matrix(-0.695, -0.719, 0.719, -0.695, 12.683, 99.192)" fill="#e8373d"/>
          <path id="多角形_9-2" data-name="多角形 9" d="M3.911,20.943a1,1,0,0,1,2,0l3.861,80.945a1,1,0,0,1-1,1.048H1.049a1,1,0,0,1-1-1.048Z" transform="translate(18.798 105.087) rotate(-115)" fill="#e8373d"/>
        </g>
      </g>
    </g>
    <g id="レイヤー_2" data-name="レイヤー 2" transform="translate(591.675 3957.673)">
      <g id="レイヤー_1" data-name="レイヤー 1" transform="translate(3.036)">
        <path id="パス_260" data-name="パス 260" d="M90.213,79.66v4.21H88.06V79.66Z" transform="translate(-55.378 -50.084)" fill="#333"/>
        <path id="パス_261" data-name="パス 261" d="M114.954.77c5.172,0,7.181,3.256,7.181,8.139v3.635c0,5.313-2.439,7.945-7.752,7.945h-4.155V34.271H108V.77Zm-.572,17.71c3.876,0,5.551-1.723,5.551-5.792V8.764c0-3.639-1.244-5.981-4.979-5.981h-4.726v15.7Z" transform="translate(-67.915 -0.484)" fill="#333"/>
        <path id="パス_262" data-name="パス 262" d="M181.548.77c5.12,0,7.181,2.825,7.181,7.563v2.918c0,3.924-1.533,6.174-4.827,6.943,3.446.765,4.827,3.2,4.827,6.843v5.217a7.494,7.494,0,0,0,.813,4.021h-2.3a7.848,7.848,0,0,1-.717-4.021V24.989c0-4.455-2.443-5.7-6.271-5.7h-3.494V34.271h-2.2V.77Zm-1.255,16.515c3.924,0,6.223-1.114,6.223-5.6V8.526c0-3.59-1.389-5.744-5.027-5.744h-4.726v14.5Z" transform="translate(-109.762 -0.484)" fill="#333"/>
        <path id="パス_263" data-name="パス 263" d="M243.27,8.473C243.27,3.59,245.52,0,250.6,0c5.168,0,7.426,3.59,7.426,8.473V25.619c0,4.879-2.25,8.469-7.426,8.469-5.072,0-7.322-3.59-7.322-8.469Zm2.2,17.276c0,3.639,1.433,6.312,5.12,6.312s5.2-2.673,5.2-6.312V8.328c0-3.639-1.485-6.312-5.217-6.312s-5.12,2.681-5.12,6.312Z" transform="translate(-152.961)" fill="#333"/>
        <path id="パス_264" data-name="パス 264" d="M15.872,16.081,10.1,16.029,7.756,16a3.546,3.546,0,0,0-3.479,2.7h0l11.51.126a3.887,3.887,0,0,1,3.847,3.928h0a3.891,3.891,0,0,1-3.924,3.85L2.38,26.462.152,35.615a4.084,4.084,0,0,0,3.917,5.053h0L6.873,29.2l8.97.085a6.605,6.605,0,1,0,.03-13.207Z" transform="translate(-0.036 -10.059)" fill="#004ca1"/>
        <text id="junior" transform="translate(114.154 32.531)" fill="#004ca1" font-size="34" font-family="BradleyHandITCTT-Bold, Bradley Hand" font-weight="700"><tspan x="0" y="0">j</tspan><tspan y="0" letter-spacing="-0.1em">u</tspan><tspan y="0" letter-spacing="-0.08em">ni</tspan><tspan y="0" letter-spacing="-0.04em">o</tspan><tspan y="0">r</tspan></text>
      </g>
    </g>
  </g>
</svg>
