<svg xmlns="http://www.w3.org/2000/svg" width="554.414" height="61.347" viewBox="0 0 554.414 61.347">
  <g id="グループ_661" data-name="グループ 661" transform="translate(-443.293 -655.514)">
    <path id="パス_286" data-name="パス 286" d="M-77.616-7.2c-.064,3.072-.144,4.176-.336,4.464a.427.427,0,0,1-.4.208,7.658,7.658,0,0,1-.928-.048,3.847,3.847,0,0,1,.416,1.52,8.715,8.715,0,0,0,1.392-.064,1.2,1.2,0,0,0,.912-.592c.368-.512.464-2.1.56-6.384v-.656h-2.512V-9.92h2.144a10.31,10.31,0,0,1,1.12.912v.96h2.464c-.176.272-.368.56-.56.8h-.544v.976h-1.76v1.5h1.76V-2.88c0,.16-.048.208-.24.208-.176,0-.768,0-1.344-.016A5.627,5.627,0,0,1-74.96-1.12,4.629,4.629,0,0,0-72.9-1.408c.512-.256.624-.7.624-1.44v-1.92h1.856v-1.5h-1.856v-.176a16.536,16.536,0,0,0,1.76-2.336l-.992-.752-.32.1h-2.96a7.886,7.886,0,0,0,.544-.96h3.728v-1.568h-3.056c.144-.432.272-.864.384-1.312l-1.584-.352a10.281,10.281,0,0,1-1.152,2.96v-.816h-1.728v-2.048h-1.76v2.048H-81.3V-9.92h1.232v1.936c0,1.7-.128,4.064-1.488,5.664a6.1,6.1,0,0,1,1.12,1.1c1.5-1.616,1.84-4.032,1.9-5.984Zm-3.968-3.344a11.344,11.344,0,0,0-2.16-2.656l-1.5.944A11.184,11.184,0,0,1-83.2-9.488Zm-.144,3.2h-3.408V-5.6H-83.5v3.536A23.611,23.611,0,0,1-85.36-.576l.9,1.808C-83.712.544-83.1-.08-82.512-.72c.96,1.248,2.288,1.712,4.224,1.792,2,.1,5.552.064,7.584-.048a8.854,8.854,0,0,1,.56-1.776,78.34,78.34,0,0,1-8.16.144c-1.648-.064-2.816-.528-3.424-1.616Zm26.272-5.52-1.2.368a18.682,18.682,0,0,1,.928,2.336l1.2-.4C-54.752-11.216-55.168-12.208-55.456-12.864Zm1.712-.608-1.152.4a21.041,21.041,0,0,1,.944,2.3l1.2-.4A21.737,21.737,0,0,0-53.744-13.472Zm-13.68,2.288.144,2.08c.368-.064.608-.1.944-.144.48-.064,1.488-.176,2.1-.24A10.107,10.107,0,0,0-66.8-3.04c0,2.9,2.192,4.3,4.768,4.3,4.464,0,5.712-3.424,5.488-7.072a13.674,13.674,0,0,0,1.776,2.464l1.3-1.84a10.979,10.979,0,0,1-3.424-6.8l-2.016.56c.112.336.224.672.336.992C-57.344-4.64-58.48-.88-62-.88a2.435,2.435,0,0,1-2.752-2.608A8.718,8.718,0,0,1-61.5-9.856a6.978,6.978,0,0,1,.816-.352l-.608-1.776a25.009,25.009,0,0,1-5.232.8A8.362,8.362,0,0,1-67.424-11.184Zm23.5-1.344-2.384-.24a16.283,16.283,0,0,1-.336,3.376c-.816.08-1.568.128-2.064.144a15.277,15.277,0,0,1-1.712,0l.192,2.176c.5-.08,1.328-.192,1.792-.272.288-.032.8-.1,1.376-.16A24.483,24.483,0,0,1-50.3.016l2.08.832A33.72,33.72,0,0,0-44.96-7.728c.464-.032.864-.064,1.12-.064.992,0,1.552.176,1.552,1.456A12.7,12.7,0,0,1-42.944-1.9a1.173,1.173,0,0,1-1.2.688A9.246,9.246,0,0,1-46.1-1.552L-45.76.56a10.515,10.515,0,0,0,1.92.224A2.543,2.543,0,0,0-41.216-.688,15.676,15.676,0,0,0-40.3-6.56c0-2.3-1.2-3.056-2.9-3.056-.336,0-.8.032-1.344.064.112-.576.24-1.168.336-1.648C-44.128-11.6-44.016-12.112-43.92-12.528Zm7.12-1.328-1.28.512a18.1,18.1,0,0,1,1.3,2.208l1.264-.544A21.285,21.285,0,0,0-36.8-13.856Zm-1.9.72-1.264.528A17.689,17.689,0,0,1-38.88-10.72l-1.44.624a17.994,17.994,0,0,1,2.688,6l2.032-.928a29.034,29.034,0,0,0-2.608-5.584l.784-.336C-37.728-11.536-38.3-12.544-38.7-13.136Zm7.68,3.792h10.208v2.208h1.872v-3.888h-2.128c.432-.56.912-1.2,1.344-1.808l-2.064-.624a13.375,13.375,0,0,1-1.376,2.432h-2.416l.768-.3a9.382,9.382,0,0,0-1.248-2.3l-1.68.608a11.165,11.165,0,0,1,1.008,2h-2.512l.576-.272a8.72,8.72,0,0,0-1.456-2.1l-1.616.72a13.46,13.46,0,0,1,1.1,1.648h-2.176v3.888h1.792Zm12.24,4.816h-6.048A15.5,15.5,0,0,0-21.36-7.28l-1.2-.928-.416.1H-30.16v1.648h5.424a10.824,10.824,0,0,1-1.232.88h-.912v1.056h-6.144v1.744h6.144V-.7c0,.224-.08.288-.416.288-.32.016-1.5.016-2.528-.032a8.494,8.494,0,0,1,.784,1.856,9.7,9.7,0,0,0,3.1-.3c.784-.272.992-.768.992-1.76V-2.784h6.16Zm15.168-8.336-1.2.368a18.683,18.683,0,0,1,.928,2.336l1.2-.4C-2.912-11.216-3.328-12.208-3.616-12.864Zm1.712-.608-1.152.4a21.041,21.041,0,0,1,.944,2.3l1.2-.4A21.737,21.737,0,0,0-1.9-13.472Zm-13.68,2.288.144,2.08c.368-.064.608-.1.944-.144.48-.064,1.488-.176,2.1-.24A10.107,10.107,0,0,0-14.96-3.04c0,2.9,2.192,4.3,4.768,4.3,4.464,0,5.712-3.424,5.488-7.072A13.674,13.674,0,0,0-2.928-3.344l1.3-1.84a10.979,10.979,0,0,1-3.424-6.8l-2.016.56c.112.336.224.672.336.992C-5.5-4.64-6.64-.88-10.16-.88a2.435,2.435,0,0,1-2.752-2.608A8.718,8.718,0,0,1-9.664-9.856a6.978,6.978,0,0,1,.816-.352l-.608-1.776a25.009,25.009,0,0,1-5.232.8A8.362,8.362,0,0,1-15.584-11.184Zm23.392,0v2.048a42.943,42.943,0,0,0,6.88,0V-11.2A32.9,32.9,0,0,1,7.808-11.184Zm1.28,6.832-1.84-.176a9.775,9.775,0,0,0-.272,2.08C6.976-.8,8.3.176,11.056.176a22.659,22.659,0,0,0,4.128-.3l-.032-2.16a18.914,18.914,0,0,1-4.016.416C9.5-1.872,8.9-2.3,8.9-3.008A5.431,5.431,0,0,1,9.088-4.352Zm-3.744-7.9L3.1-12.448c-.016.512-.112,1.12-.16,1.568a44.615,44.615,0,0,0-.672,6.336A20.453,20.453,0,0,0,2.9.688L4.752.56C4.736.336,4.72.08,4.72-.1A4.828,4.828,0,0,1,4.8-.848c.176-.848.7-2.592,1.152-3.92L4.96-5.552c-.224.528-.48,1.088-.72,1.632a7.719,7.719,0,0,1-.064-1.04,42.437,42.437,0,0,1,.768-5.872C5.008-11.12,5.216-11.92,5.344-12.256Zm20.128-.624L23.264-13.1a13.455,13.455,0,0,1-.432,2.672c-.5.048-.976.064-1.456.064a20.213,20.213,0,0,1-2.128-.112l.144,1.856c.688.048,1.344.064,2,.064.272,0,.544,0,.832-.016A25.208,25.208,0,0,1,18.96-2.928l1.936.992A29.481,29.481,0,0,0,24.32-8.784a27.757,27.757,0,0,0,2.8-.56L27.056-11.2a19.615,19.615,0,0,1-2.16.512C25.136-11.552,25.344-12.368,25.472-12.88ZM24.64-1.808c0-.56.592-.976,1.52-.976a5.748,5.748,0,0,1,1.3.16v.32c0,.88-.336,1.488-1.44,1.488C25.136-.816,24.64-1.216,24.64-1.808Zm4.576-6.1h-2c.032.976.112,2.4.176,3.584-.368-.032-.72-.064-1.1-.064-2.224,0-3.536,1.2-3.536,2.768,0,1.76,1.568,2.64,3.552,2.64,2.272,0,3.088-1.152,3.088-2.64v-.16a13.564,13.564,0,0,1,2.16,1.712l1.072-1.712a10.463,10.463,0,0,0-3.312-2.048c-.032-.8-.08-1.568-.1-2.032C29.2-6.56,29.168-7.232,29.216-7.9Zm2.752.848L33.1-8.736a27.561,27.561,0,0,0-3.952-2.176L28.128-9.328A23.093,23.093,0,0,1,31.968-7.056ZM41.44-1.888c0-.4.384-.768.992-.768.864,0,1.456.672,1.552,1.712a8.353,8.353,0,0,1-.928.048C42.1-.9,41.44-1.3,41.44-1.888Zm-2.72-10.3.064,2.08c.368-.048.88-.1,1.312-.128.848-.048,3.056-.144,3.872-.16-.784.688-2.448,2.032-3.344,2.768-.944.784-2.88,2.416-4.016,3.328l1.456,1.5c1.712-1.952,3.312-3.248,5.76-3.248,1.888,0,3.328.976,3.328,2.416a2.319,2.319,0,0,1-1.328,2.176,3.2,3.2,0,0,0-3.408-2.736,2.681,2.681,0,0,0-2.864,2.5c0,1.6,1.68,2.624,3.9,2.624,3.872,0,5.792-2,5.792-4.528,0-2.336-2.064-4.032-4.784-4.032a6.25,6.25,0,0,0-1.52.176c1.008-.8,2.688-2.208,3.552-2.816.368-.272.752-.5,1.12-.736l-1.04-1.424a6.991,6.991,0,0,1-1.216.176c-.912.08-4.336.144-5.184.144A11.1,11.1,0,0,1,38.72-12.192ZM65.04-8.88a17.059,17.059,0,0,1-.848,3.728,20.175,20.175,0,0,1-.976-3.728ZM58.928-6.992H58c.24-.256.464-.528.688-.8h1.9a8.006,8.006,0,0,1-.768,1.152l-.56-.448ZM57.2-10.5h1.248c-.224.368-.464.72-.72,1.072H57.2ZM67.952-8.88v-1.76H63.7c.224-.848.4-1.728.56-2.624l-1.92-.288a19.3,19.3,0,0,1-1.472,5.216V-9.424H59.856a19.376,19.376,0,0,0,1.664-3.248l-1.76-.5a15.7,15.7,0,0,1-1.008,2.16V-12.1H57.2v-1.456H55.424V-12.1H53.616v1.6h1.808v1.072H53.088v1.632H56.3c-.288.272-.576.544-.88.8H54.4v.768a14.4,14.4,0,0,1-1.68.976A11.752,11.752,0,0,1,54-3.792,16.394,16.394,0,0,0,56.48-5.52h1.136c-.272.288-.56.56-.832.8H56.16v1.248c-1.2.1-2.3.176-3.2.24l.192,1.7c.88-.08,1.9-.176,3.008-.272v1.36c0,.176-.064.224-.272.24-.192,0-.9,0-1.5-.016a6.413,6.413,0,0,1,.544,1.616,5.889,5.889,0,0,0,2.3-.272c.576-.272.72-.7.72-1.52V-1.968c.96-.08,1.936-.16,2.9-.256V-3.856c-.96.08-1.936.176-2.9.24v-.32a17.071,17.071,0,0,0,2.24-2.192,9.545,9.545,0,0,1,1.056.976,12.024,12.024,0,0,0,.736-1.1,17.981,17.981,0,0,0,1.088,3.248,8.126,8.126,0,0,1-3.44,2.736A7.994,7.994,0,0,1,60.72,1.456,10.392,10.392,0,0,0,64.1-1.168a8.489,8.489,0,0,0,2.7,2.576A7.438,7.438,0,0,1,68.112-.256,7.325,7.325,0,0,1,65.28-2.928,18.419,18.419,0,0,0,67.008-8.88Zm12.4.848-1.024.688c.288.208.592.448.9.7l-4.112.08c.288-.464.608-.976.9-1.472Zm2.512-2.752v1.136H72.624v-1.136ZM78.688-.736V-1.968h4.928V-3.6H78.688V-4.992l3.248-.1a11.588,11.588,0,0,1,.784.9l1.488-1.04a20.238,20.238,0,0,0-3.168-2.8h2V-9.184H84.8v-3.328H78.688v-1.024H76.736v1.024H70.768v3.328h1.76v1.152h2.3c-.208.5-.464,1.024-.7,1.5L71.856-6.5l.08,1.7c1.328-.032,3.008-.08,4.8-.128V-3.6H72.144v1.632h4.592V-.736H70.72V.944H84.9V-.736Z" transform="translate(720.36 671.87)" fill="#e8373d"/>
    <path id="パス_286_-_アウトライン" data-name="パス 286 - アウトライン" d="M-36.8-13.856l-1.28.512a18.1,18.1,0,0,1,1.3,2.208l1.264-.544a21.286,21.286,0,0,0-1.28-2.176m-37.968.224a10.281,10.281,0,0,1-1.152,2.96v-.816h-1.728v-2.048h-1.76v2.048H-81.3V-9.92h1.232v1.936c0,1.7-.128,4.064-1.488,5.664a6.1,6.1,0,0,1,1.12,1.1c1.5-1.616,1.84-4.032,1.9-5.984h.912c-.064,3.072-.144,4.176-.336,4.464a.427.427,0,0,1-.4.208,7.658,7.658,0,0,1-.928-.048,3.847,3.847,0,0,1,.416,1.52,8.715,8.715,0,0,0,1.392-.064,1.2,1.2,0,0,0,.912-.592c.368-.512.464-2.1.56-6.384v-.656h-2.512V-9.92h2.144a10.31,10.31,0,0,1,1.12.912v.96h2.464c-.176.272-.368.56-.56.8h-.544v.976h-1.76v1.5h1.76V-2.88c0,.16-.048.208-.24.208-.176,0-.768,0-1.344-.016A5.627,5.627,0,0,1-74.96-1.12,4.629,4.629,0,0,0-72.9-1.408c.512-.256.624-.7.624-1.44v-1.92h1.856v-1.5h-1.856v-.176a16.536,16.536,0,0,0,1.76-2.336l-.992-.752-.32.1h-2.96a7.886,7.886,0,0,0,.544-.96h3.728v-1.568h-3.056c.144-.432.272-.864.384-1.312l-1.584-.352m48.7,0-1.68.608a11.165,11.165,0,0,1,1.008,2h-2.512l.576-.272a8.72,8.72,0,0,0-1.456-2.1l-1.616.72a13.46,13.46,0,0,1,1.1,1.648h-2.176v3.888h1.792V-9.344h10.208v2.208h1.872v-3.888h-2.128c.432-.56.912-1.2,1.344-1.808l-2.064-.624a13.375,13.375,0,0,1-1.376,2.432h-2.416l.768-.3a9.382,9.382,0,0,0-1.248-2.3m81.488.08V-12.1H53.616v1.6h1.808v1.072H53.088v1.632H56.3c-.288.272-.576.544-.88.8H54.4v.768a14.4,14.4,0,0,1-1.68.976A11.752,11.752,0,0,1,54-3.792,16.394,16.394,0,0,0,56.48-5.52h1.136c-.272.288-.56.56-.832.8H56.16v1.248c-1.2.1-2.3.176-3.2.24l.192,1.7c.88-.08,1.9-.176,3.008-.272v1.36c0,.176-.064.224-.272.24-.192,0-.9,0-1.5-.016a6.413,6.413,0,0,1,.544,1.616,5.889,5.889,0,0,0,2.3-.272c.576-.272.72-.7.72-1.52V-1.968c.96-.08,1.936-.16,2.9-.256V-3.856c-.96.08-1.936.176-2.9.24v-.32a17.071,17.071,0,0,0,2.24-2.192,9.544,9.544,0,0,1,1.056.976,12.023,12.023,0,0,0,.736-1.1,17.981,17.981,0,0,0,1.088,3.248,8.126,8.126,0,0,1-3.44,2.736A7.994,7.994,0,0,1,60.72,1.456,10.392,10.392,0,0,0,64.1-1.168a8.489,8.489,0,0,0,2.7,2.576A7.438,7.438,0,0,1,68.112-.256,7.325,7.325,0,0,1,65.28-2.928,18.419,18.419,0,0,0,67.008-8.88h.944v-1.76H63.7c.224-.848.4-1.728.56-2.624l-1.92-.288a19.3,19.3,0,0,1-1.472,5.216V-9.424H59.856a19.376,19.376,0,0,0,1.664-3.248l-1.76-.5a15.7,15.7,0,0,1-1.008,2.16V-12.1H57.2v-1.456H55.424m2.3,4.128H57.2V-10.5h1.248c-.224.368-.464.72-.72,1.072m5.488.544H65.04a17.06,17.06,0,0,1-.848,3.728,20.175,20.175,0,0,1-.976-3.728M59.824-6.64l-.56-.448-.336.1H58c.24-.256.464-.528.688-.8h1.9a8.006,8.006,0,0,1-.768,1.152m16.912-6.9v1.024H70.768v3.328h1.76v1.152h2.3c-.208.5-.464,1.024-.7,1.5L71.856-6.5l.08,1.7c1.328-.032,3.008-.08,4.8-.128V-3.6H72.144v1.632h4.592V-.736H70.72V.944H84.9V-.736H78.688V-1.968h4.928V-3.6H78.688V-4.992l3.248-.1a11.589,11.589,0,0,1,.784.9l1.488-1.04a20.238,20.238,0,0,0-3.168-2.8h2V-9.184H84.8v-3.328H78.688v-1.024H76.736m6.128,3.888H72.624v-1.136h10.24v1.136M76.112-6.56c.288-.464.608-.976.9-1.472h3.344l-1.024.688c.288.208.592.448.9.7l-4.112.08M-53.744-13.472l-1.152.4a21.041,21.041,0,0,1,.944,2.3l1.2-.4a21.737,21.737,0,0,0-.992-2.3m51.84,0-1.152.4a21.041,21.041,0,0,1,.944,2.3l1.2-.4a21.737,21.737,0,0,0-.992-2.3m-81.84.272-1.5.944A11.184,11.184,0,0,1-83.2-9.488l1.616-1.056a11.344,11.344,0,0,0-2.16-2.656m45.04.064-1.264.528A17.69,17.69,0,0,1-38.88-10.72l-1.44.624a17.994,17.994,0,0,1,2.688,6l2.032-.928a29.034,29.034,0,0,0-2.608-5.584l.784-.336c-.3-.592-.88-1.6-1.28-2.192m61.968.032a13.455,13.455,0,0,1-.432,2.672c-.5.048-.976.064-1.456.064a20.213,20.213,0,0,1-2.128-.112l.144,1.856c.688.048,1.344.064,2,.064.272,0,.544,0,.832-.016A25.208,25.208,0,0,1,18.96-2.928l1.936.992A29.481,29.481,0,0,0,24.32-8.784a27.758,27.758,0,0,0,2.8-.56L27.056-11.2a19.615,19.615,0,0,1-2.16.512c.24-.864.448-1.68.576-2.192L23.264-13.1m-78.72.24-1.2.368a18.683,18.683,0,0,1,.928,2.336l1.2-.4c-.224-.656-.64-1.648-.928-2.3m51.84,0-1.2.368a18.683,18.683,0,0,1,.928,2.336l1.2-.4c-.224-.656-.64-1.648-.928-2.3m-42.688.1a16.283,16.283,0,0,1-.336,3.376c-.816.08-1.568.128-2.064.144a15.277,15.277,0,0,1-1.712,0l.192,2.176c.5-.08,1.328-.192,1.792-.272.288-.032.8-.1,1.376-.16A24.483,24.483,0,0,1-50.3.016l2.08.832A33.72,33.72,0,0,0-44.96-7.728c.464-.032.864-.064,1.12-.064.992,0,1.552.176,1.552,1.456A12.7,12.7,0,0,1-42.944-1.9a1.173,1.173,0,0,1-1.2.688A9.246,9.246,0,0,1-46.1-1.552L-45.76.56a10.515,10.515,0,0,0,1.92.224A2.543,2.543,0,0,0-41.216-.688,15.676,15.676,0,0,0-40.3-6.56c0-2.3-1.2-3.056-2.9-3.056-.336,0-.8.032-1.344.064.112-.576.24-1.168.336-1.648.08-.4.192-.912.288-1.328l-2.384-.24m49.408.32c-.016.512-.112,1.12-.16,1.568a44.615,44.615,0,0,0-.672,6.336A20.453,20.453,0,0,0,2.9.688L4.752.56C4.736.336,4.72.08,4.72-.1A4.828,4.828,0,0,1,4.8-.848c.176-.848.7-2.592,1.152-3.92L4.96-5.552c-.224.528-.48,1.088-.72,1.632a7.719,7.719,0,0,1-.064-1.04,42.437,42.437,0,0,1,.768-5.872c.064-.288.272-1.088.4-1.424L3.1-12.448m43.472.016a6.991,6.991,0,0,1-1.216.176c-.912.08-4.336.144-5.184.144a11.1,11.1,0,0,1-1.456-.08l.064,2.08c.368-.048.88-.1,1.312-.128.848-.048,3.056-.144,3.872-.16-.784.688-2.448,2.032-3.344,2.768-.944.784-2.88,2.416-4.016,3.328l1.456,1.5c1.712-1.952,3.312-3.248,5.76-3.248,1.888,0,3.328.976,3.328,2.416a2.319,2.319,0,0,1-1.328,2.176,3.2,3.2,0,0,0-3.408-2.736,2.681,2.681,0,0,0-2.864,2.5c0,1.6,1.68,2.624,3.9,2.624,3.872,0,5.792-2,5.792-4.528,0-2.336-2.064-4.032-4.784-4.032a6.25,6.25,0,0,0-1.52.176c1.008-.8,2.688-2.208,3.552-2.816.368-.272.752-.5,1.12-.736l-1.04-1.424M43.056-.9c-.96,0-1.616-.4-1.616-.992,0-.4.384-.768.992-.768.864,0,1.456.672,1.552,1.712a8.353,8.353,0,0,1-.928.048M-61.3-11.984a25.009,25.009,0,0,1-5.232.8,8.363,8.363,0,0,1-.9,0l.144,2.08c.368-.064.608-.1.944-.144.48-.064,1.488-.176,2.1-.24A10.107,10.107,0,0,0-66.8-3.04c0,2.9,2.192,4.3,4.768,4.3,4.464,0,5.712-3.424,5.488-7.072a13.674,13.674,0,0,0,1.776,2.464l1.3-1.84a10.979,10.979,0,0,1-3.424-6.8l-2.016.56c.112.336.224.672.336.992C-57.344-4.64-58.48-.88-62-.88a2.435,2.435,0,0,1-2.752-2.608A8.718,8.718,0,0,1-61.5-9.856a6.978,6.978,0,0,1,.816-.352l-.608-1.776m51.84,0a25.009,25.009,0,0,1-5.232.8,8.363,8.363,0,0,1-.9,0l.144,2.08c.368-.064.608-.1.944-.144.48-.064,1.488-.176,2.1-.24A10.107,10.107,0,0,0-14.96-3.04c0,2.9,2.192,4.3,4.768,4.3,4.464,0,5.712-3.424,5.488-7.072A13.674,13.674,0,0,0-2.928-3.344l1.3-1.84a10.979,10.979,0,0,1-3.424-6.8l-2.016.56c.112.336.224.672.336.992C-5.5-4.64-6.64-.88-10.16-.88a2.435,2.435,0,0,1-2.752-2.608A8.718,8.718,0,0,1-9.664-9.856a6.978,6.978,0,0,1,.816-.352l-.608-1.776m24.144.784a32.9,32.9,0,0,1-6.88.016v2.048a42.943,42.943,0,0,0,6.88,0V-11.2m14.464.288L28.128-9.328a23.093,23.093,0,0,1,3.84,2.272L33.1-8.736a27.561,27.561,0,0,0-3.952-2.176m-51.712,2.7-.416.1H-30.16v1.648h5.424a10.824,10.824,0,0,1-1.232.88h-.912v1.056h-6.144v1.744h6.144V-.7c0,.224-.08.288-.416.288-.32.016-1.5.016-2.528-.032a8.494,8.494,0,0,1,.784,1.856,9.7,9.7,0,0,0,3.1-.3c.784-.272.992-.768.992-1.76V-2.784h6.16V-4.528h-6.048A15.5,15.5,0,0,0-21.36-7.28l-1.2-.928m49.776.3c.032.976.112,2.4.176,3.584-.368-.032-.72-.064-1.1-.064-2.224,0-3.536,1.2-3.536,2.768,0,1.76,1.568,2.64,3.552,2.64,2.272,0,3.088-1.152,3.088-2.64v-.16a13.564,13.564,0,0,1,2.16,1.712l1.072-1.712a10.463,10.463,0,0,0-3.312-2.048c-.032-.8-.08-1.568-.1-2.032-.016-.7-.048-1.376,0-2.048h-2m-1.2,7.088c-.88,0-1.376-.4-1.376-.992,0-.56.592-.976,1.52-.976a5.748,5.748,0,0,1,1.3.16v.32c0,.88-.336,1.488-1.44,1.488M-85.136-7.344V-5.6H-83.5v3.536A23.612,23.612,0,0,1-85.36-.576l.9,1.808C-83.712.544-83.1-.08-82.512-.72c.96,1.248,2.288,1.712,4.224,1.792,2,.1,5.552.064,7.584-.048a8.855,8.855,0,0,1,.56-1.776,78.34,78.34,0,0,1-8.16.144c-1.648-.064-2.816-.528-3.424-1.616v-5.12h-3.408M7.248-4.528a9.775,9.775,0,0,0-.272,2.08C6.976-.8,8.3.176,11.056.176a22.659,22.659,0,0,0,4.128-.3l-.032-2.16a18.914,18.914,0,0,1-4.016.416C9.5-1.872,8.9-2.3,8.9-3.008a5.431,5.431,0,0,1,.192-1.344l-1.84-.176M-36.8-16.356a2.5,2.5,0,0,1,2.064,1.089c.254.371.557.858.834,1.334a2.5,2.5,0,0,1,1.141-1.022l1.616-.72a2.5,2.5,0,0,1,2.544.3l.007,0,1.68-.608a2.5,2.5,0,0,1,2.856.858q.1.131.194.27a2.5,2.5,0,0,1,2.8-.994l2.064.624a2.5,2.5,0,0,1,1.642,1.584,2.5,2.5,0,0,1,.124.583,2.5,2.5,0,0,1,1.8-.621,6,6,0,0,0,.618,0,23.963,23.963,0,0,0,4.5-.649,2.5,2.5,0,0,1,1.939.087,2.5,2.5,0,0,1,.617.416l.024-.007,1.021-.284a2.5,2.5,0,0,1,1.171-.77l1.2-.368q.074-.023.149-.041a2.5,2.5,0,0,1,.324-.139l1.152-.4A2.5,2.5,0,0,1,.3-14.654c.183.341.368.739.543,1.143a2.5,2.5,0,0,1,.6-.8,2.5,2.5,0,0,1,1.875-.623l2.24.192a2.5,2.5,0,0,1,1.86,1.094,2.5,2.5,0,0,1,.733-.007,22.1,22.1,0,0,0,2.818.15,31.546,31.546,0,0,0,3.421-.172,2.5,2.5,0,0,1,1.958.612,2.5,2.5,0,0,1,.771,1.282,2.5,2.5,0,0,1,.4-.493,2.5,2.5,0,0,1,2.022-.682c.377.044.816.07,1.208.084.01-.112.017-.219.021-.32a2.5,2.5,0,0,1,.858-1.791,2.5,2.5,0,0,1,1.893-.6l2.208.224a2.5,2.5,0,0,1,1.793,1.05,2.5,2.5,0,0,1,.36.756,2.5,2.5,0,0,1,.535.261,2.5,2.5,0,0,1,1.728.092,29.539,29.539,0,0,1,4.431,2.449,2.5,2.5,0,0,1,.6,3.424l-1.136,1.68a2.5,2.5,0,0,1-1.134.917,13.817,13.817,0,0,1,1.266.992,2.5,2.5,0,0,1-.058-.714,2.5,2.5,0,0,1,.93-1.793c.606-.487,1.448-1.185,2.248-1.853q-.065-.049-.128-.1a2.5,2.5,0,0,1-.878-1.827l-.064-2.08a2.5,2.5,0,0,1,.832-1.94,2.5,2.5,0,0,1,2.02-.612,8.182,8.182,0,0,0,1.1.055c.9,0,4.162-.066,4.954-.133.478-.047.67-.073.747-.087a2.5,2.5,0,0,1,2.719.926l1.04,1.424a2.5,2.5,0,0,1,.44,1.925,2.5,2.5,0,0,1-1.093,1.644l-.095.061a6.814,6.814,0,0,1,.593.443,6.484,6.484,0,0,1,1.213,1.335,2.5,2.5,0,0,1-.1-.718V-9.424a2.489,2.489,0,0,1,.528-1.537V-12.1a2.5,2.5,0,0,1,2.015-2.453,2.5,2.5,0,0,1,2.293-1.5H57.2a2.49,2.49,0,0,1,1.6.577,2.492,2.492,0,0,1,1.641-.1l.314.088a2.494,2.494,0,0,1,1.955-.538l1.92.288a2.5,2.5,0,0,1,1.66,1.014,2.5,2.5,0,0,1,.466,1.582h1.2a2.519,2.519,0,0,1,.388.03,2.5,2.5,0,0,1,2.428-1.9h3.95a2.5,2.5,0,0,1,2.018-1.024h1.952a2.5,2.5,0,0,1,2.018,1.024H84.8a2.5,2.5,0,0,1,2.5,2.5v3.328a2.5,2.5,0,0,1-1.3,2.2q.073.084.141.167a2.5,2.5,0,0,1,.547,1.928,2.5,2.5,0,0,1-.569,1.277c0,.005,0,.011,0,.017v.681A2.5,2.5,0,0,1,87.4-.736V.944a2.5,2.5,0,0,1-2.5,2.5H70.72A2.492,2.492,0,0,1,68.94,2.7a2.5,2.5,0,0,1-3.417.857A10.677,10.677,0,0,1,63.935,2.4a14.123,14.123,0,0,1-2.087,1.284,2.5,2.5,0,0,1-3.025-.6,3.974,3.974,0,0,1-.523.3l-.052.024a7.993,7.993,0,0,1-3.319.487,2.5,2.5,0,0,1-2.468-2.1,4.1,4.1,0,0,0-.312-.9Q52.1.807,52.068.717a2.509,2.509,0,0,1-1.12-1.072A6.516,6.516,0,0,1,49.419,1.52a9.08,9.08,0,0,1-5.963,1.908A7.564,7.564,0,0,1,39.3,2.309,4.877,4.877,0,0,1,37.223-.446a2.5,2.5,0,0,1-.956-.616L35.068-2.3a2.5,2.5,0,0,1-.326,1.851L33.671,1.263a2.5,2.5,0,0,1-1.782,1.15,2.5,2.5,0,0,1-1.53-.28A5.758,5.758,0,0,1,26.3,3.524a6.906,6.906,0,0,1-3.936-1.1A4.829,4.829,0,0,1,20.738.559a2.492,2.492,0,0,1-.982-.27L17.82-.7q-.074-.038-.145-.081l.009.619a2.5,2.5,0,0,1-2.046,2.5,25.154,25.154,0,0,1-4.582.346,8.24,8.24,0,0,1-4.117-.9A2.5,2.5,0,0,1,4.924,3.054l-1.856.128a2.5,2.5,0,0,1-2.573-1.8A21.081,21.081,0,0,1-.177-2.909l-.707,1A2.5,2.5,0,0,1-2.772-.849q-.075,0-.149,0A7.485,7.485,0,0,1-4.392,1.482a7.638,7.638,0,0,1-5.8,2.282c-3.465,0-6.083-1.834-6.955-4.659a2.49,2.49,0,0,1-1.637.611h-3.668a4.511,4.511,0,0,1-.487,1.952A3.753,3.753,0,0,1-25.1,3.459a11.589,11.589,0,0,1-3.942.449,2.5,2.5,0,0,1-2.434-1.927A6.347,6.347,0,0,0-32,.778a2.5,2.5,0,0,1-.316-1.062h-.705a2.5,2.5,0,0,1-2.459-2.045l-1.111.507a2.5,2.5,0,0,1-1.682.142A9.468,9.468,0,0,1-38.964.4a4.844,4.844,0,0,1-2.151,2.287,5.774,5.774,0,0,1-2.724.6,13.068,13.068,0,0,1-2.424-.275,2.5,2.5,0,0,1-.476-.149,2.5,2.5,0,0,1-2.413.309l-2.08-.832A2.5,2.5,0,0,1-52.709.7a2.5,2.5,0,0,1,.4-2.17A14.787,14.787,0,0,0-50.65-4.609a2.5,2.5,0,0,1-.368-.093,2.492,2.492,0,0,1-.409.957l-1.3,1.84A2.5,2.5,0,0,1-54.612-.849q-.075,0-.149,0a7.485,7.485,0,0,1-1.472,2.326,7.638,7.638,0,0,1-5.8,2.282A7.2,7.2,0,0,1-68.1.914a4.133,4.133,0,0,0-.134.5,2.5,2.5,0,0,1-2.332,2.11c-1.234.068-3,.109-4.725.109-.853,0-2.084-.01-3.11-.059a9.162,9.162,0,0,1-3.913-.924c-.152.145-.306.288-.463.431a2.5,2.5,0,0,1-2.147.613A2.5,2.5,0,0,1-86.7,2.342L-87.6.534A2.5,2.5,0,0,1-86.824-2.6c.275-.2.552-.409.82-.623v-.029A2.5,2.5,0,0,1-87.636-5.6V-7.344A2.5,2.5,0,0,1-86.23-9.593a11.694,11.694,0,0,0-.8-.913,2.5,2.5,0,0,1-.7-2.043,2.5,2.5,0,0,1,1.154-1.825l1.5-.944A2.5,2.5,0,0,1-82.012-15c.109.105.232.225.363.357a2.5,2.5,0,0,1,2.241-1.391h1.76a2.488,2.488,0,0,1,1.372.41,2.5,2.5,0,0,1,2.05-.446l1.584.352a2.5,2.5,0,0,1,1.584,1.126q.038.062.073.126h.472a2.5,2.5,0,0,1,2.018,1.024,2.5,2.5,0,0,1,1.217-.236,6,6,0,0,0,.618,0,23.963,23.963,0,0,0,4.5-.649,2.5,2.5,0,0,1,1.939.087,2.5,2.5,0,0,1,.617.416l.024-.007,1.021-.284a2.5,2.5,0,0,1,1.171-.77l1.2-.368q.074-.023.149-.041a2.5,2.5,0,0,1,.324-.139l1.152-.4a2.5,2.5,0,0,1,3.023,1.18,23.577,23.577,0,0,1,1.13,2.608,2.5,2.5,0,0,1,.091.3l.106.006c.145.012.295.017.473.017.2,0,.413-.007.64-.014l.269-.008a8.54,8.54,0,0,0,.029-.943A2.5,2.5,0,0,1-48.01-14.6a2.5,2.5,0,0,1,1.957-.66l2.384.24a2.5,2.5,0,0,1,1.695.917,2.5,2.5,0,0,1,1.043-.816l1.264-.528a2.5,2.5,0,0,1,.493-.149q.081-.04.166-.074l1.28-.512A2.5,2.5,0,0,1-36.8-16.356ZM-.086-7.162c.059-.605.132-1.19.205-1.728a2.5,2.5,0,0,1-.24.094l-1.052.351A8.093,8.093,0,0,0-.086-7.162ZM18.3-6.374a2.5,2.5,0,0,1-1.35-1.7,2.5,2.5,0,0,1-2.042,1.43c-1.067.1-2.39.148-3.724.148q-.42,0-.827-.007a2.5,2.5,0,0,1,.765.7,2.5,2.5,0,0,1,.463,1.425,16.451,16.451,0,0,0,3.063-.36,2.5,2.5,0,0,1,2.067.5l.074.062a2.5,2.5,0,0,1,.221-.323A17.322,17.322,0,0,0,18.3-6.374ZM-62-3.38c.571,0,.725-.19.817-.3.388-.479.687-1.655.552-3.574a6.071,6.071,0,0,0-1.621,3.769c0,.035,0,.065,0,.092A1.733,1.733,0,0,0-62-3.38Zm51.84,0c.571,0,.725-.19.817-.3.388-.479.687-1.655.552-3.574a6.071,6.071,0,0,0-1.621,3.769c0,.035,0,.065,0,.092A1.733,1.733,0,0,0-10.16-3.38Zm79.811-.4a2.493,2.493,0,0,1-.212-.9l-.08-1.7a2.5,2.5,0,0,1,.019-.448q-.1.071-.211.132a20.934,20.934,0,0,1-.991,3.422,4.334,4.334,0,0,0,.871.678,2.5,2.5,0,0,1,.6-.4V-3.6Q69.644-3.693,69.651-3.785Z" transform="translate(720.36 671.87)" fill="#fff"/>
    <path id="パス_285" data-name="パス 285" d="M-200.808-15.12l-2.4-1.968a7.752,7.752,0,0,1-2.232.264h-13.32a23.044,23.044,0,0,1-2.76-.216v3.36c.5-.048,1.8-.168,2.76-.168h12.7a26.637,26.637,0,0,1-6.1,6.912c-1.512-1.32-3.1-2.616-4.056-3.336l-2.544,2.04a51.051,51.051,0,0,1,5.28,4.608A62.54,62.54,0,0,1-208.9,1.56l2.808-2.232c-.936-1.128-2.352-2.688-3.72-4.056a39.985,39.985,0,0,0,8.184-9.384A8.368,8.368,0,0,1-200.808-15.12Zm3.816,5.784,1.512,3.024a48.09,48.09,0,0,0,8.472-3.456v7.68a26.879,26.879,0,0,1-.168,3.144h3.792a16.5,16.5,0,0,1-.216-3.144v-9.7a44.022,44.022,0,0,0,6.456-5.208l-2.592-2.472a30.769,30.769,0,0,1-6.768,5.832A38.592,38.592,0,0,1-196.992-9.336Zm29.5-8.9-2.256,2.4a49.9,49.9,0,0,1,6,5.184l2.448-2.5A48.472,48.472,0,0,0-167.5-18.24Zm-3,15.984L-168.48.912a25.991,25.991,0,0,0,8.9-3.384,25.52,25.52,0,0,0,8.88-8.88l-1.872-3.384A22.6,22.6,0,0,1-161.3-5.4,24.736,24.736,0,0,1-170.5-2.256Zm36.168-16.464-3.5-1.152a11.547,11.547,0,0,1-1.08,2.52A21.132,21.132,0,0,1-146.4-9.624l2.688,1.992a27.356,27.356,0,0,0,6.048-5.808h6.744a17.061,17.061,0,0,1-3.408,6.552A19.127,19.127,0,0,1-144-.96l2.832,2.544a22.41,22.41,0,0,0,9.7-6.768A25.041,25.041,0,0,0-127.3-13.2a9.609,9.609,0,0,1,.792-1.728l-2.448-1.512a7.7,7.7,0,0,1-2.088.288h-4.824c.024-.048.048-.072.072-.12C-135.5-16.8-134.88-17.88-134.328-18.72Zm16.8.312v3.1c.7-.048,1.728-.072,2.5-.072h9.192c.864,0,1.992.024,2.64.072v-3.1a22.628,22.628,0,0,1-2.592.12h-9.24A20.231,20.231,0,0,1-117.528-18.408Zm16.344,6.96-2.136-1.32a5.063,5.063,0,0,1-1.752.24h-11.88c-.744,0-1.776-.072-2.784-.144v3.12c1.008-.1,2.208-.12,2.784-.12h11.592a10.412,10.412,0,0,1-2.472,4.152,16.188,16.188,0,0,1-8.3,4.2l2.376,2.712a17.972,17.972,0,0,0,8.568-5.184,17.248,17.248,0,0,0,3.552-6.648A8.891,8.891,0,0,1-101.184-11.448Zm24.84-4.536L-78.7-17.5a8.045,8.045,0,0,1-1.9.192H-91.68c-.792,0-2.16-.12-2.88-.192v3.384c.624-.048,1.776-.1,2.856-.1H-80.52A15.192,15.192,0,0,1-83.328-7.44,15.965,15.965,0,0,1-92.736-1.8l2.616,2.856a19.2,19.2,0,0,0,9.648-6.624,24.665,24.665,0,0,0,3.6-8.736A10.484,10.484,0,0,1-76.344-15.984Zm11.4,13.68a26.36,26.36,0,0,1-.24,3.36h3.744c-.1-.984-.216-2.664-.216-3.36V-9.1A69.321,69.321,0,0,1-52.992-5.52l1.368-3.312a78.385,78.385,0,0,0-10.032-3.72V-16.1a26.093,26.093,0,0,1,.216-2.88h-3.744a16.659,16.659,0,0,1,.24,2.88Zm19.32-14.16.312,3.288c2.784-.6,7.68-1.128,9.936-1.368a9.6,9.6,0,0,0-3.576,7.416c0,5.208,4.752,7.9,9.792,8.232l1.128-3.288c-4.08-.216-7.776-1.632-7.776-5.592A7.293,7.293,0,0,1-30.72-14.5a24.933,24.933,0,0,1,4.632-.336l-.024-3.072c-1.7.072-4.32.216-6.792.432-4.392.36-8.352.72-10.368.888C-43.728-16.536-44.664-16.488-45.624-16.464Zm16.1,3.984-1.776.744A18.517,18.517,0,0,1-29.424-8.4l1.824-.816A29.789,29.789,0,0,0-29.52-12.48Zm2.688-1.1-1.752.816a21.113,21.113,0,0,1,1.968,3.24l1.8-.864A35.9,35.9,0,0,0-26.832-13.584Zm24.048-4.008a1.393,1.393,0,0,1,1.392-1.392A1.388,1.388,0,0,1-.024-17.592a1.383,1.383,0,0,1-1.368,1.368A1.388,1.388,0,0,1-2.784-17.592Zm-1.488,0a2.658,2.658,0,0,0,.048.456,10.355,10.355,0,0,1-1.368.1H-16.7a26.722,26.722,0,0,1-2.856-.192v3.384c.6-.048,1.752-.1,2.856-.1h11.16A15.082,15.082,0,0,1-8.352-7.176a15.733,15.733,0,0,1-9.408,5.64l2.616,2.88A19.276,19.276,0,0,0-5.5-5.3c2.016-2.664,3.048-6.384,3.6-8.736.072-.216.12-.456.192-.72a1.368,1.368,0,0,0,.312.024,2.878,2.878,0,0,0,2.856-2.856,2.884,2.884,0,0,0-2.856-2.88A2.888,2.888,0,0,0-4.272-17.592Zm10.416.576c.048.672.048,1.656.048,2.328V-2.952C6.192-1.8,6.12.288,6.12.408H9.432c0-.072,0-.624-.024-1.3H20.976c0,.7-.024,1.248-.024,1.3h3.312c0-.1-.048-2.4-.048-3.336v-11.76c0-.72,0-1.608.048-2.328-.864.048-1.776.048-2.376.048H8.688C8.04-16.968,7.128-16.992,6.144-17.016Zm3.264,3.1H21v9.96H9.408Zm37.608-5.736-1.9.768a27.832,27.832,0,0,1,1.752,3.1l-.168-.1a7.56,7.56,0,0,1-2.088.288h-4.8c.024-.048.048-.072.072-.12a24.9,24.9,0,0,1,1.464-2.448L37.824-19.32a10.86,10.86,0,0,1-1.08,2.5A20.756,20.756,0,0,1,29.256-9.1L31.944-7.08a26.966,26.966,0,0,0,6.072-5.808H44.76A16.978,16.978,0,0,1,41.352-6.36,19.2,19.2,0,0,1,31.68-.408l2.832,2.544a22.353,22.353,0,0,0,9.672-6.792,24.367,24.367,0,0,0,4.2-7.992,9.609,9.609,0,0,1,.792-1.728l-2.04-1.248,1.776-.744A30.508,30.508,0,0,0,47.016-19.656Zm2.832-1.08-1.9.768A25.445,25.445,0,0,1,49.9-16.656l1.9-.816A34.267,34.267,0,0,0,49.848-20.736Zm9.024,2.328v3.1c.7-.048,1.728-.072,2.5-.072H70.56c.864,0,1.992.024,2.64.072v-3.1a22.628,22.628,0,0,1-2.592.12h-9.24A20.231,20.231,0,0,1,58.872-18.408Zm16.344,6.96-2.136-1.32a5.063,5.063,0,0,1-1.752.24H59.448c-.744,0-1.776-.072-2.784-.144v3.12c1.008-.1,2.208-.12,2.784-.12H71.04A10.412,10.412,0,0,1,68.568-5.52a16.188,16.188,0,0,1-8.3,4.2L62.64,1.392a17.972,17.972,0,0,0,8.568-5.184A17.248,17.248,0,0,0,74.76-10.44,8.891,8.891,0,0,1,75.216-11.448ZM85.56-18.792,84.432-15.96a82.335,82.335,0,0,1,12.984,3l1.224-3A87.645,87.645,0,0,0,85.56-18.792Zm-1.1,6.456-1.1,2.9a83.441,83.441,0,0,1,12.48,3.024l1.176-3A98.938,98.938,0,0,0,84.456-12.336ZM83.232-5.472l-1.2,3.024c3.84.576,11.424,2.232,14.664,3.576l1.32-3A102.565,102.565,0,0,0,83.232-5.472ZM109.7-18.24l-2.256,2.4a49.9,49.9,0,0,1,6,5.184l2.448-2.5A48.472,48.472,0,0,0,109.7-18.24Zm-3,15.984L108.72.912a25.991,25.991,0,0,0,8.9-3.384,25.52,25.52,0,0,0,8.88-8.88l-1.872-3.384A22.6,22.6,0,0,1,115.9-5.4,24.736,24.736,0,0,1,106.7-2.256Zm41.112-17.4-1.9.768a27.829,27.829,0,0,1,1.752,3.1l-.168-.1a7.56,7.56,0,0,1-2.088.288h-4.8c.024-.048.048-.072.072-.12a24.9,24.9,0,0,1,1.464-2.448l-3.528-1.152a10.86,10.86,0,0,1-1.08,2.5A20.756,20.756,0,0,1,130.056-9.1l2.688,2.016a26.966,26.966,0,0,0,6.072-5.808h6.744a16.978,16.978,0,0,1-3.408,6.528A19.2,19.2,0,0,1,132.48-.408l2.832,2.544a22.353,22.353,0,0,0,9.672-6.792,24.367,24.367,0,0,0,4.2-7.992,9.609,9.609,0,0,1,.792-1.728l-2.04-1.248,1.776-.744A30.506,30.506,0,0,0,147.816-19.656Zm2.832-1.08-1.9.768a25.445,25.445,0,0,1,1.944,3.312l1.9-.816A34.27,34.27,0,0,0,150.648-20.736Zm8.016,6.72h15.312V-10.7h2.808v-5.832h-3.192c.648-.84,1.368-1.8,2.016-2.712l-3.1-.936a20.062,20.062,0,0,1-2.064,3.648h-3.624l1.152-.456a14.073,14.073,0,0,0-1.872-3.456l-2.52.912a16.747,16.747,0,0,1,1.512,3h-3.768l.864-.408a13.08,13.08,0,0,0-2.184-3.144l-2.424,1.08a20.19,20.19,0,0,1,1.656,2.472h-3.264V-10.7h2.688Zm18.36,7.224h-9.072a23.245,23.245,0,0,0,5.208-4.128l-1.8-1.392-.624.144H159.96V-9.7H168.1a16.235,16.235,0,0,1-1.848,1.32H164.88v1.584h-9.216v2.616h9.216v3.12c0,.336-.12.432-.624.432-.48.024-2.256.024-3.792-.048a12.741,12.741,0,0,1,1.176,2.784,14.551,14.551,0,0,0,4.656-.456c1.176-.408,1.488-1.152,1.488-2.64V-4.176h9.24Zm9.624-7.1c-2.3.792-4.656,1.608-6.216,2.088l.984,2.328c1.7-.7,3.744-1.536,5.664-2.376Zm10.1,9.48H186.48V-5.808h10.272ZM186.48-.888V-2.28h10.272V-.888Zm4.008-9.192a3.028,3.028,0,0,0,.192-1.248v-7.944h-9.624v2.208h1.824l-1.2,1.44A12.935,12.935,0,0,1,184.7-13.44l1.44-1.824a14.641,14.641,0,0,0-2.664-1.8h4.632v5.712c0,.24-.1.336-.36.336s-1.2,0-2.016-.024a7.489,7.489,0,0,1,.72,2.016,9.294,9.294,0,0,0,3.264-.312l.072-.024c-.144.432-.312.936-.5,1.392h-5.64v10.1h2.832V1.272h10.272v.864h2.976v-10.1H192.12a19.8,19.8,0,0,0,.936-1.752Zm11.04-9.192h-9.552v2.208h1.56l-1.152,1.416a14.867,14.867,0,0,1,3.024,2.088c-1.56.528-3.024.984-4.128,1.32l.96,2.136c1.776-.648,3.984-1.464,6.048-2.256l-.432-2.04c-.744.264-1.488.5-2.208.768l1.3-1.728a15.1,15.1,0,0,0-2.664-1.7h4.584v5.64c0,.264-.1.336-.408.36-.288,0-1.344,0-2.256-.048a8.583,8.583,0,0,1,.768,2.16,8.858,8.858,0,0,0,3.5-.36c.816-.36,1.056-.936,1.056-2.088Zm6.48,13.224h2.3l.5-8.856.12-3.336h-3.552l.12,3.336ZM209.16.336a2.225,2.225,0,0,0,2.208-2.3,2.211,2.211,0,0,0-2.208-2.3,2.191,2.191,0,0,0-2.184,2.3A2.206,2.206,0,0,0,209.16.336Zm8.928-6.384h2.3l.5-8.856.12-3.336h-3.552l.12,3.336ZM219.24.336a2.225,2.225,0,0,0,2.208-2.3,2.211,2.211,0,0,0-2.208-2.3,2.191,2.191,0,0,0-2.184,2.3A2.206,2.206,0,0,0,219.24.336Z" transform="translate(720.769 705)" fill="#e8373d"/>
    <path id="パス_285_-_アウトライン" data-name="パス 285 - アウトライン" d="M49.848-20.736l-1.9.768A25.445,25.445,0,0,1,49.9-16.656l1.9-.816a34.267,34.267,0,0,0-1.944-3.264m100.8,0-1.9.768a25.444,25.444,0,0,1,1.944,3.312l1.9-.816a34.27,34.27,0,0,0-1.944-3.264m-152.04.264a2.888,2.888,0,0,0-2.88,2.88,2.658,2.658,0,0,0,.048.456,10.356,10.356,0,0,1-1.368.1H-16.7a26.722,26.722,0,0,1-2.856-.192v3.384c.6-.048,1.752-.1,2.856-.1h11.16A15.082,15.082,0,0,1-8.352-7.176a15.733,15.733,0,0,1-9.408,5.64l2.616,2.88A19.276,19.276,0,0,0-5.5-5.3c2.016-2.664,3.048-6.384,3.6-8.736.072-.216.12-.456.192-.72a1.368,1.368,0,0,0,.312.024,2.878,2.878,0,0,0,2.856-2.856,2.884,2.884,0,0,0-2.856-2.88m0,4.248a1.388,1.388,0,0,1-1.392-1.368,1.393,1.393,0,0,1,1.392-1.392A1.388,1.388,0,0,1-.024-17.592a1.383,1.383,0,0,1-1.368,1.368m167.5-4.224-2.52.912a16.747,16.747,0,0,1,1.512,3h-3.768l.864-.408a13.08,13.08,0,0,0-2.184-3.144l-2.424,1.08a20.19,20.19,0,0,1,1.656,2.472h-3.264V-10.7h2.688v-3.312h15.312V-10.7h2.808v-5.832h-3.192c.648-.84,1.368-1.8,2.016-2.712l-3.1-.936a20.062,20.062,0,0,1-2.064,3.648h-3.624l1.152-.456a14.073,14.073,0,0,0-1.872-3.456m-303.936.576a11.546,11.546,0,0,1-1.08,2.52A21.132,21.132,0,0,1-146.4-9.624l2.688,1.992a27.356,27.356,0,0,0,6.048-5.808h6.744a17.061,17.061,0,0,1-3.408,6.552A19.127,19.127,0,0,1-144-.96l2.832,2.544a22.41,22.41,0,0,0,9.7-6.768A25.041,25.041,0,0,0-127.3-13.2a9.609,9.609,0,0,1,.792-1.728l-2.448-1.512a7.7,7.7,0,0,1-2.088.288h-4.824c.024-.048.048-.072.072-.12.288-.528.912-1.608,1.464-2.448l-3.5-1.152m184.848.216-1.9.768a27.83,27.83,0,0,1,1.752,3.1l-.168-.1a7.56,7.56,0,0,1-2.088.288h-4.8c.024-.048.048-.072.072-.12a24.9,24.9,0,0,1,1.464-2.448L37.824-19.32a10.86,10.86,0,0,1-1.08,2.5A20.756,20.756,0,0,1,29.256-9.1L31.944-7.08a26.966,26.966,0,0,0,6.072-5.808H44.76A16.978,16.978,0,0,1,41.352-6.36,19.2,19.2,0,0,1,31.68-.408l2.832,2.544a22.353,22.353,0,0,0,9.672-6.792,24.367,24.367,0,0,0,4.2-7.992,9.609,9.609,0,0,1,.792-1.728l-2.04-1.248,1.776-.744a30.508,30.508,0,0,0-1.9-3.288m100.8,0-1.9.768a27.829,27.829,0,0,1,1.752,3.1l-.168-.1a7.56,7.56,0,0,1-2.088.288h-4.8c.024-.048.048-.072.072-.12a24.9,24.9,0,0,1,1.464-2.448l-3.528-1.152a10.86,10.86,0,0,1-1.08,2.5A20.756,20.756,0,0,1,130.056-9.1l2.688,2.016a26.966,26.966,0,0,0,6.072-5.808h6.744a16.977,16.977,0,0,1-3.408,6.528A19.2,19.2,0,0,1,132.48-.408l2.832,2.544a22.353,22.353,0,0,0,9.672-6.792,24.367,24.367,0,0,0,4.2-7.992,9.61,9.61,0,0,1,.792-1.728l-2.04-1.248,1.776-.744a30.511,30.511,0,0,0-1.9-3.288m-327.552.192a30.769,30.769,0,0,1-6.768,5.832,38.592,38.592,0,0,1-10.488,4.3l1.512,3.024a48.09,48.09,0,0,0,8.472-3.456v7.68a26.879,26.879,0,0,1-.168,3.144h3.792a16.5,16.5,0,0,1-.216-3.144v-9.7a44.022,44.022,0,0,0,6.456-5.208l-2.592-2.472m360.792.192v2.208h1.824l-1.2,1.44A12.935,12.935,0,0,1,184.7-13.44l1.44-1.824a14.64,14.64,0,0,0-2.664-1.8h4.632v5.712c0,.24-.1.336-.36.336s-1.2,0-2.016-.024a7.489,7.489,0,0,1,.72,2.016,9.294,9.294,0,0,0,3.264-.312l.072-.024c-.144.432-.312.936-.5,1.392h-5.64v10.1h2.832V1.272h10.272v.864h2.976v-10.1H192.12a19.8,19.8,0,0,0,.936-1.752l-2.568-.36a3.028,3.028,0,0,0,.192-1.248v-7.944h-9.624m15.7,14.856H186.48V-5.808h10.272v1.392m0,3.528H186.48V-2.28h10.272V-.888m-4.776-18.384v2.208h1.56l-1.152,1.416a14.867,14.867,0,0,1,3.024,2.088c-1.56.528-3.024.984-4.128,1.32l.96,2.136c1.776-.648,3.984-1.464,6.048-2.256l-.432-2.04c-.744.264-1.488.5-2.208.768l1.3-1.728a15.1,15.1,0,0,0-2.664-1.7h4.584v5.64c0,.264-.1.336-.408.36-.288,0-1.344,0-2.256-.048a8.582,8.582,0,0,1,.768,2.16,8.858,8.858,0,0,0,3.5-.36c.816-.36,1.056-.936,1.056-2.088v-7.872h-9.552m-257.16.288a16.66,16.66,0,0,1,.24,2.88V-2.3a26.359,26.359,0,0,1-.24,3.36h3.744c-.1-.984-.216-2.664-.216-3.36V-9.1A69.321,69.321,0,0,1-52.992-5.52l1.368-3.312a78.385,78.385,0,0,0-10.032-3.72V-16.1a26.093,26.093,0,0,1,.216-2.88h-3.744m150.744.192L84.432-15.96a82.335,82.335,0,0,1,12.984,3l1.224-3a87.645,87.645,0,0,0-13.08-2.832m-203.088.384v3.1c.7-.048,1.728-.072,2.5-.072h9.192c.864,0,1.992.024,2.64.072v-3.1a22.627,22.627,0,0,1-2.592.12h-9.24a20.231,20.231,0,0,1-2.5-.12m176.4,0v3.1c.7-.048,1.728-.072,2.5-.072H70.56c.864,0,1.992.024,2.64.072v-3.1a22.628,22.628,0,0,1-2.592.12h-9.24a20.231,20.231,0,0,1-2.5-.12M-167.5-18.24l-2.256,2.4a49.9,49.9,0,0,1,6,5.184l2.448-2.5A48.472,48.472,0,0,0-167.5-18.24m277.2,0-2.256,2.4a49.9,49.9,0,0,1,6,5.184l2.448-2.5A48.472,48.472,0,0,0,109.7-18.24m97.68,0,.12,3.336.5,8.856h2.3l.5-8.856.12-3.336h-3.552m10.08,0,.12,3.336.5,8.856h2.3l.5-8.856.12-3.336h-3.552M-26.112-17.9c-1.7.072-4.32.216-6.792.432-4.392.36-8.352.72-10.368.888-.456.048-1.392.1-2.352.12l.312,3.288c2.784-.6,7.68-1.128,9.936-1.368a9.6,9.6,0,0,0-3.576,7.416c0,5.208,4.752,7.9,9.792,8.232l1.128-3.288c-4.08-.216-7.776-1.632-7.776-5.592A7.293,7.293,0,0,1-30.72-14.5a24.933,24.933,0,0,1,4.632-.336l-.024-3.072M-94.56-17.5v3.384c.624-.048,1.776-.1,2.856-.1H-80.52A15.192,15.192,0,0,1-83.328-7.44,15.965,15.965,0,0,1-92.736-1.8l2.616,2.856a19.2,19.2,0,0,0,9.648-6.624,24.665,24.665,0,0,0,3.6-8.736,10.483,10.483,0,0,1,.528-1.68L-78.7-17.5a8.045,8.045,0,0,1-1.9.192H-91.68c-.792,0-2.16-.12-2.88-.192m-108.648.408a7.753,7.753,0,0,1-2.232.264h-13.32a23.044,23.044,0,0,1-2.76-.216v3.36c.5-.048,1.8-.168,2.76-.168h12.7a26.637,26.637,0,0,1-6.1,6.912c-1.512-1.32-3.1-2.616-4.056-3.336l-2.544,2.04a51.051,51.051,0,0,1,5.28,4.608A62.54,62.54,0,0,1-208.9,1.56l2.808-2.232c-.936-1.128-2.352-2.688-3.72-4.056a39.985,39.985,0,0,0,8.184-9.384,8.368,8.368,0,0,1,.816-1.008l-2.4-1.968m209.352.072c.048.672.048,1.656.048,2.328V-2.952C6.192-1.8,6.12.288,6.12.408H9.432c0-.072,0-.624-.024-1.3H20.976c0,.7-.024,1.248-.024,1.3h3.312c0-.1-.048-2.4-.048-3.336v-11.76c0-.72,0-1.608.048-2.328-.864.048-1.776.048-2.376.048H8.688c-.648,0-1.56-.024-2.544-.048M21-3.96H9.408v-9.96H21v9.96M-152.568-14.736A22.6,22.6,0,0,1-161.3-5.4,24.736,24.736,0,0,1-170.5-2.256L-168.48.912a25.991,25.991,0,0,0,8.9-3.384,25.52,25.52,0,0,0,8.88-8.88l-1.872-3.384m277.2,0A22.6,22.6,0,0,1,115.9-5.4,24.736,24.736,0,0,1,106.7-2.256L108.72.912a25.991,25.991,0,0,0,8.9-3.384,25.52,25.52,0,0,0,8.88-8.88l-1.872-3.384m62.016.84c-2.3.792-4.656,1.608-6.216,2.088l.984,2.328c1.7-.7,3.744-1.536,5.664-2.376l-.432-2.04m-213.48.312-1.752.816a21.114,21.114,0,0,1,1.968,3.24l1.8-.864a35.9,35.9,0,0,0-2.016-3.192m-76.488.816a5.063,5.063,0,0,1-1.752.24h-11.88c-.744,0-1.776-.072-2.784-.144v3.12c1.008-.1,2.208-.12,2.784-.12h11.592a10.412,10.412,0,0,1-2.472,4.152,16.188,16.188,0,0,1-8.3,4.2l2.376,2.712a17.972,17.972,0,0,0,8.568-5.184,17.248,17.248,0,0,0,3.552-6.648,8.891,8.891,0,0,1,.456-1.008l-2.136-1.32m176.4,0a5.063,5.063,0,0,1-1.752.24H59.448c-.744,0-1.776-.072-2.784-.144v3.12c1.008-.1,2.208-.12,2.784-.12H71.04A10.412,10.412,0,0,1,68.568-5.52a16.188,16.188,0,0,1-8.3,4.2L62.64,1.392a17.972,17.972,0,0,0,8.568-5.184A17.248,17.248,0,0,0,74.76-10.44a8.892,8.892,0,0,1,.456-1.008l-2.136-1.32m-102.6.288-1.776.744A18.517,18.517,0,0,1-29.424-8.4l1.824-.816a29.79,29.79,0,0,0-1.92-3.264m113.976.144-1.1,2.9a83.442,83.442,0,0,1,12.48,3.024l1.176-3a98.938,98.938,0,0,0-12.552-2.928m86.9.024-.624.144H159.96V-9.7H168.1a16.235,16.235,0,0,1-1.848,1.32H164.88v1.584h-9.216v2.616h9.216v3.12c0,.336-.12.432-.624.432-.48.024-2.256.024-3.792-.048a12.741,12.741,0,0,1,1.176,2.784,14.551,14.551,0,0,0,4.656-.456c1.176-.408,1.488-1.152,1.488-2.64V-4.176h9.24V-6.792h-9.072a23.245,23.245,0,0,0,5.208-4.128l-1.8-1.392M83.232-5.472l-1.2,3.024c3.84.576,11.424,2.232,14.664,3.576l1.32-3a102.565,102.565,0,0,0-14.784-3.6m125.928,1.2a2.191,2.191,0,0,0-2.184,2.3,2.206,2.206,0,0,0,2.184,2.3,2.225,2.225,0,0,0,2.208-2.3,2.211,2.211,0,0,0-2.208-2.3m10.08,0a2.191,2.191,0,0,0-2.184,2.3,2.206,2.206,0,0,0,2.184,2.3,2.225,2.225,0,0,0,2.208-2.3,2.211,2.211,0,0,0-2.208-2.3M49.847-24.736a4,4,0,0,1,3.274,1.7,37.531,37.531,0,0,1,1.986,3.277,4,4,0,0,1,1.144-1.671,4,4,0,0,1,3.187-.938,16.517,16.517,0,0,0,1.93.08h9.24a19.256,19.256,0,0,0,2.026-.08,4,4,0,0,1,3.187.938A4,4,0,0,1,77.2-18.408v3.1q0,.19-.018.377l.137.084a4,4,0,0,1,1.419,5.3c-.064.118-.151.311-.2.424A20.8,20.8,0,0,1,74.176-1.11,22.015,22.015,0,0,1,63.723,5.243a4,4,0,0,1-4.092-1.215L57.255,1.316a4,4,0,0,1-.784-3.908,4,4,0,0,1,2.983-2.645,16.031,16.031,0,0,0,1.656-.435H59.448c-.5,0-1.559.021-2.4.1a4,4,0,0,1-3.07-1.023,4,4,0,0,1-1.309-2.959v-2.866l-.026.046a5.913,5.913,0,0,0-.438.924,28.488,28.488,0,0,1-4.918,9.322,24.242,24.242,0,0,1-4.771,4.5,30.462,30.462,0,0,1-6.518,3.48,4,4,0,0,1-4.155-.74L29.007,2.568a4,4,0,0,1-.876-1.131,4,4,0,0,1-3.867,2.972H20.952A3.989,3.989,0,0,1,18,3.112H12.38a3.989,3.989,0,0,1-2.948,1.3H6.12a4,4,0,0,1-4-4c0-.088,0-.161.012-.514.019-.66.06-2.033.06-2.846v-8.8a6.8,6.8,0,0,1-.631.346A24.926,24.926,0,0,1-2.3-2.893,23.365,23.365,0,0,1-13.9,5.147a4,4,0,0,1-4.2-1.114l-2.616-2.88a4,4,0,0,1-.857-3.881,4,4,0,0,1,2.913-2.7,14.286,14.286,0,0,0,4.512-1.792,10.633,10.633,0,0,0,2.669-2.439q.108-.136.211-.28H-16.7c-.972,0-2.032.043-2.537.083a4,4,0,0,1-1.589-.194,4,4,0,0,1-.182.9,4,4,0,0,1-2.073,2.368l-1.8.864a4,4,0,0,1-1.027.333l-.012.006a4,4,0,0,1,1.208,1.162,4,4,0,0,1,.468,3.536L-25.376,2.4A4,4,0,0,1-29.426,5.1a16.842,16.842,0,0,1-8.922-3.081,11.208,11.208,0,0,1-4.6-9.142,13.206,13.206,0,0,1,.233-2.461c-.645.1-1.241.213-1.75.323a4,4,0,0,1-3.206-.683q-.072-.053-.141-.108A3.988,3.988,0,0,1-47.927-7.3l-1.368,3.312A4,4,0,0,1-51.628-1.76a4,4,0,0,1-3.222-.217c-.82-.43-1.789-.876-2.807-1.31V-2.3c0,.471.1,1.971.2,2.972a4,4,0,0,1-1.019,3.076A4,4,0,0,1-61.44,5.056h-3.744a4,4,0,0,1-3.031-1.39,4,4,0,0,1-.925-3.2,22.55,22.55,0,0,0,.2-2.767V-16.1a12.935,12.935,0,0,0-.162-2.1,4,4,0,0,1,.829-3.32,4,4,0,0,1,3.093-1.464h3.744a4,4,0,0,1,2.985,1.337,4,4,0,0,1,.989,3.117,22.942,22.942,0,0,0-.19,2.426v.622a74.4,74.4,0,0,1,7.79,3.057,4.011,4.011,0,0,1,.746.473,4,4,0,0,1-.174-.846l-.312-3.288a4,4,0,0,1,.99-3.032,4,4,0,0,1,2.892-1.344c.929-.023,1.741-.068,2.033-.1l.087-.008c.737-.061,1.757-.151,2.938-.254,2.072-.181,4.65-.406,7.427-.634,2.977-.26,5.857-.4,6.958-.442a4,4,0,0,1,2.926,1.1,4,4,0,0,1,.751.976,4,4,0,0,1,.416-.421,4,4,0,0,1,3.175-.947c.494.068,1.68.154,2.309.154h9.36a6.884,6.884,0,0,1,5.952-3.432A6.861,6.861,0,0,1,4.7-20.746a4,4,0,0,1,1.541-.269l.269.007c.842.021,1.638.04,2.177.04h13.2c.558,0,1.4,0,2.154-.042a4,4,0,0,1,3.066,1.181,4,4,0,0,1,1.147,3.079c-.039.587-.039,1.4-.039,2.062v1.5A16.71,16.71,0,0,0,33.269-18.8q.04-.071.083-.14a7.246,7.246,0,0,0,.605-1.4,4,4,0,0,1,1.955-2.49,4,4,0,0,1,3.153-.289l3.512,1.147a4,4,0,0,1,1.041-.62l1.9-.768a4.009,4.009,0,0,1,.716-.215q.108-.052.22-.1l1.9-.768A3.992,3.992,0,0,1,49.847-24.736ZM17-9.92H13.408v1.96H17ZM29.611-3.831l-.067-.049-1.328-1v1.948c0,.141,0,.317,0,.514A4,4,0,0,1,29.611-3.831ZM150.647-24.736a4,4,0,0,1,3.274,1.7c.256.364.531.791.8,1.231a4,4,0,0,1,1.232-.857l2.424-1.08a4,4,0,0,1,3.959.4l2.4-.87a4,4,0,0,1,4.57,1.373l.095.129a4,4,0,0,1,4.262-1.305l3.1.936a4,4,0,0,1,1.554.888,3.986,3.986,0,0,1,2.737-1.083h9.624a4.029,4.029,0,0,1,.648.052,4.029,4.029,0,0,1,.648-.052h9.552a4,4,0,0,1,3.393,1.88,4,4,0,0,1,2.463-.848h3.552a4,4,0,0,1,2.879,1.223,4,4,0,0,1,.385.465,4,4,0,0,1,.385-.465,4,4,0,0,1,2.879-1.223h3.552a4,4,0,0,1,2.879,1.223,4,4,0,0,1,1.119,2.921l-.12,3.336q0,.042,0,.084l-.5,8.856q-.007.13-.023.257a6.389,6.389,0,0,1,1.085,3.6,6.332,6.332,0,0,1-1.745,4.4,6.119,6.119,0,0,1-4.463,1.9,6.081,6.081,0,0,1-4.472-1.923,6.219,6.219,0,0,1-.561-.687,6.252,6.252,0,0,1-.585.709,6.119,6.119,0,0,1-4.463,1.9,6.081,6.081,0,0,1-4.472-1.923,6.225,6.225,0,0,1-.96-1.337v1.06a4,4,0,0,1-4,4h-2.976a3.983,3.983,0,0,1-2.483-.864h-5.305a3.983,3.983,0,0,1-2.483.864h-2.832a4,4,0,0,1-4-4V-1.157a3.985,3.985,0,0,1-2.624.981h-5.265a6.839,6.839,0,0,1-.747,2.8,5.872,5.872,0,0,1-3.375,2.8,17.573,17.573,0,0,1-6,.688,4,4,0,0,1-3.894-3.084,9.415,9.415,0,0,0-.769-1.739,4,4,0,0,1-.483-1.465h-.831a4,4,0,0,1-4-4V-6.792a3.981,3.981,0,0,1,.681-2.233q-.06-.129-.11-.263a27.672,27.672,0,0,1-4.152,7.161,24.242,24.242,0,0,1-4.771,4.5,30.462,30.462,0,0,1-6.518,3.48,4,4,0,0,1-4.155-.74l-2.832-2.544a4,4,0,0,1-1.23-3.851,4,4,0,0,1,1.834-2.548l-.067-.049L127.656-5.9l-.038-.029a30.819,30.819,0,0,1-7.93,6.879,30.032,30.032,0,0,1-10.3,3.9,4,4,0,0,1-4.046-1.8L103.329-.108a4,4,0,0,1-.258-3.822,4,4,0,0,1,3.074-2.286,22.065,22.065,0,0,0,4.883-1.254,4,4,0,0,1-.512-.463,46.518,46.518,0,0,0-5.36-4.627,4,4,0,0,1-1.688-2.867,4,4,0,0,1,1.064-3.152l2.256-2.4a4,4,0,0,1,5.144-.581,52.552,52.552,0,0,1,6.861,5.653,3.984,3.984,0,0,1,.943,1.639,14.421,14.421,0,0,0,1.27-2.159,4,4,0,0,1,3.487-2.306,4,4,0,0,1,3.637,2.061l1.623,2.934a16.751,16.751,0,0,0,4.313-5.066q.04-.071.083-.14a7.246,7.246,0,0,0,.605-1.4,4,4,0,0,1,1.955-2.49,4,4,0,0,1,3.153-.289l3.512,1.147a4,4,0,0,1,1.041-.62l1.9-.768a4.009,4.009,0,0,1,.716-.215q.108-.052.22-.1l1.9-.768A3.992,3.992,0,0,1,150.647-24.736ZM204.039-5.548q-.017-.135-.025-.273l-.064-1.122q-.106.11-.223.22v1.7Q203.872-5.3,204.039-5.548ZM-137.832-23.872a4,4,0,0,1,1.249.2l3.5,1.152a4,4,0,0,1,2.475,2.341,3.127,3.127,0,0,0,.487-.088,4,4,0,0,1,3.267.424l2.448,1.512a3.993,3.993,0,0,1,1.854,2.814l.086-.082a4,4,0,0,1,.934-.649v-2.16a4,4,0,0,1,1.379-3.022,4,4,0,0,1,3.187-.938,16.517,16.517,0,0,0,1.93.08h9.24a19.256,19.256,0,0,0,2.026-.08,4,4,0,0,1,3.187.938A4,4,0,0,1-99.2-18.408v3.1q0,.19-.018.377l.137.084a4.021,4.021,0,0,1,.521.383V-17.5a4,4,0,0,1,1.316-2.966,4,4,0,0,1,3.082-1.014c1.03.1,2.027.172,2.482.172h11.088a4.107,4.107,0,0,0,.892-.064,4,4,0,0,1,3.167.507l2.352,1.512A4,4,0,0,1-72.7-14.343a7.29,7.29,0,0,0-.284.965,27.292,27.292,0,0,1-4.288,10.2l-.016.022a22.074,22.074,0,0,1-4.932,4.738A24.78,24.78,0,0,1-88.9,4.865a4,4,0,0,1-4.17-1.108L-95.686.9a4,4,0,0,1-.874-3.877,4,4,0,0,1,2.9-2.717c4.154-.986,6.033-2.783,7.2-4.242q.106-.133.206-.275H-91.7c-.955,0-2.005.042-2.549.084a4,4,0,0,1-2.945-.981,3.988,3.988,0,0,1-.464,1.554c-.064.118-.151.311-.2.424a20.8,20.8,0,0,1-4.365,8.018,22.015,22.015,0,0,1-10.453,6.353,4,4,0,0,1-4.092-1.215l-2.376-2.712a4,4,0,0,1-.784-3.908,4,4,0,0,1,2.983-2.645,16.031,16.031,0,0,0,1.656-.435h-1.663c-.5,0-1.559.021-2.4.1a4,4,0,0,1-3.07-1.023,4,4,0,0,1-1.309-2.959v-1.659a28.955,28.955,0,0,1-4.618,8.532l-.023.029A26.512,26.512,0,0,1-139.7,5.306a4,4,0,0,1-4.138-.746l-2.832-2.544A4,4,0,0,1-147.9-1.838a4,4,0,0,1,1.846-2.553l-.037-.027-2.688-1.992q-.133-.1-.257-.207A30.65,30.65,0,0,1-157.512.954a30.032,30.032,0,0,1-10.3,3.9,4,4,0,0,1-4.046-1.8l-2.016-3.168a4,4,0,0,1-.258-3.822,4,4,0,0,1,3.074-2.286,22.065,22.065,0,0,0,4.883-1.254,4,4,0,0,1-.512-.463,46.518,46.518,0,0,0-5.36-4.627,4,4,0,0,1-1.623-2.455,4,4,0,0,1-.668.871A47.372,47.372,0,0,1-179.6-9.694v7.606a18.838,18.838,0,0,0,.095,2.166,4,4,0,0,1-.692,3.4,4,4,0,0,1-3.187,1.583h-3.792a4,4,0,0,1-3.052-1.415,4,4,0,0,1-.895-3.236c.045-.312.115-1.517.115-2.493V-3.6c-1.134.428-2.26.807-3.348,1.126a4,4,0,0,1-4.7-2.05l-1.512-3.024a4,4,0,0,1-.278-.724,46.264,46.264,0,0,1-3.276,3.75c.4.453.779.891,1.114,1.295a4,4,0,0,1,.9,2.967,4,4,0,0,1-1.49,2.719l-2.808,2.232a4,4,0,0,1-3,.836A4,4,0,0,1-212.1,3.96,58.79,58.79,0,0,0-216.33-.817a47.346,47.346,0,0,0-4.76-4.163,4,4,0,0,1-1.668-3.143,4,4,0,0,1,.314-1.664,4,4,0,0,1-1.766-.932,4,4,0,0,1-1.309-2.959v-3.36a4,4,0,0,1,1.4-3.036,4,4,0,0,1,3.213-.918,19.5,19.5,0,0,0,2.152.169h13.32a5.5,5.5,0,0,0,1.014-.074,4,4,0,0,1,3.754.717l2.4,1.968a4,4,0,0,1,1.45,2.763,4,4,0,0,1-.363,2.025,33.858,33.858,0,0,0,8.578-3.61,26.886,26.886,0,0,0,5.782-4.971,4,4,0,0,1,2.848-1.451,4,4,0,0,1,3,1.1l2.592,2.472a4,4,0,0,1,1.154,2.07,4,4,0,0,1,.563-.763l2.256-2.4a4,4,0,0,1,5.144-.581,52.552,52.552,0,0,1,6.861,5.653,3.984,3.984,0,0,1,.943,1.639,14.42,14.42,0,0,0,1.27-2.159,4,4,0,0,1,3.487-2.306,4,4,0,0,1,3.637,2.061l1.63,2.946a17.1,17.1,0,0,0,5.068-5.636l.028-.048A7.747,7.747,0,0,0-141.7-20.9a4,4,0,0,1,1.959-2.492A4,4,0,0,1-137.832-23.872Zm223.39,1.08a4.016,4.016,0,0,1,.487.03,91.555,91.555,0,0,1,13.914,3.026,4,4,0,0,1,2.328,2.132,4,4,0,0,1,.057,3.156l-1.224,3a4.017,4.017,0,0,1-.352.674,4,4,0,0,1-.035,2.827l-.971,2.477A4,4,0,0,1,101.7-3.43a4,4,0,0,1-.023,3.168l-1.32,3a4,4,0,0,1-5.194,2.084A82.357,82.357,0,0,0,81.439,1.508,4,4,0,0,1,78.565-.453a4,4,0,0,1-.251-3.47l1.2-3.024a4.01,4.01,0,0,1,.3-.61,4,4,0,0,1-.205-3.3l1.1-2.9q.072-.189.161-.367a4,4,0,0,1-.162-3.316l1.128-2.832A4,4,0,0,1,85.558-22.792Z" transform="translate(720.769 705)" fill="#fff"/>
    <path id="パス_282" data-name="パス 282" d="M1.36.045a1.994,1.994,0,0,1,1.605,1.8L7.557,52.47a1.221,1.221,0,0,1-1.309,1.468,1.994,1.994,0,0,1-1.605-1.8L.051,1.514A1.221,1.221,0,0,1,1.36.045Z" transform="matrix(0.899, -0.438, 0.438, 0.899, 447.249, 664.382)" fill="#e8373d"/>
    <path id="パス_282_-_アウトライン" data-name="パス 282 - アウトライン" d="M1.212.037A1.232,1.232,0,0,0,.051,1.514L4.643,52.14a1.994,1.994,0,0,0,1.605,1.8A1.221,1.221,0,0,0,7.557,52.47L2.965,1.843A1.994,1.994,0,0,0,1.36.045,1.31,1.31,0,0,0,1.212.037m0-3a4.326,4.326,0,0,1,.485.027A4.99,4.99,0,0,1,5.953,1.572L10.545,52.2a4.456,4.456,0,0,1-1.1,3.411A4.131,4.131,0,0,1,6.4,56.946a4.326,4.326,0,0,1-.485-.027,4.99,4.99,0,0,1-4.255-4.508L-2.937,1.785a4.456,4.456,0,0,1,1.1-3.411A4.131,4.131,0,0,1,1.212-2.963Z" transform="matrix(0.899, -0.438, 0.438, 0.899, 447.249, 664.382)" fill="#fff"/>
    <path id="パス_281" data-name="パス 281" d="M4.554-.132A1.221,1.221,0,0,1,5.863,1.336L1.271,51.963a1.994,1.994,0,0,1-1.605,1.8,1.221,1.221,0,0,1-1.309-1.468L2.949,1.666A1.994,1.994,0,0,1,4.554-.132Z" transform="matrix(-0.899, -0.438, 0.438, -0.899, 968.641, 712)" fill="#e8373d"/>
    <path id="パス_281_-_アウトライン" data-name="パス 281 - アウトライン" d="M4.7-.141a1.311,1.311,0,0,0-.147.008,1.994,1.994,0,0,0-1.605,1.8L-1.643,52.292A1.221,1.221,0,0,0-.335,53.761a1.994,1.994,0,0,0,1.605-1.8L5.863,1.336A1.232,1.232,0,0,0,4.7-.141m0-3A4.131,4.131,0,0,1,7.746-1.8a4.456,4.456,0,0,1,1.1,3.411L4.258,52.234A4.99,4.99,0,0,1,0,56.742a4.328,4.328,0,0,1-.485.027,4.131,4.131,0,0,1-3.045-1.337,4.456,4.456,0,0,1-1.1-3.411L-.039,1.395A4.99,4.99,0,0,1,4.216-3.113,4.328,4.328,0,0,1,4.7-3.141Z" transform="matrix(-0.899, -0.438, 0.438, -0.899, 968.641, 712)" fill="#fff"/>
  </g>
</svg>
