<svg xmlns="http://www.w3.org/2000/svg" width="253.783" height="160.719" viewBox="0 0 253.783 160.719">
  <g id="グループ_701" data-name="グループ 701" transform="matrix(0.951, 0.309, -0.309, 0.951, -1330.316, -1358.358)">
    <rect id="長方形_330" data-name="長方形 330" width="236.951" height="42" transform="translate(1712 872)" fill="#17a3a9"/>
    <text id="小学生から身につける" transform="translate(1830 901)" fill="#fff" font-size="20" font-family="NotoSansJP-Medium, Noto Sans JP" font-weight="500" letter-spacing="0.06em"><tspan x="-105.4" y="0">小学生</tspan><tspan y="0">から</tspan><tspan y="0">身</tspan><tspan y="0">につける</tspan></text>
    <rect id="長方形_331" data-name="長方形 331" width="236.951" height="42" transform="translate(1712 922)" fill="#17a3a9"/>
    <g id="グループ_700" data-name="グループ 700" transform="translate(0.721 -12)">
      <text id="プログラミング思考" transform="translate(1818.279 963)" fill="#fff" font-size="20" font-family="NotoSansJP-Medium, Noto Sans JP" font-weight="500" letter-spacing="0.06em"><tspan x="-94.8" y="0">プログラミング</tspan><tspan y="0">思考</tspan></text>
      <g id="フリーの豆電球アイコン_1_" data-name="フリーの豆電球アイコン (1)" transform="matrix(0.946, 0.326, -0.326, 0.946, 1921.137, 941)">
        <path id="パス_277" data-name="パス 277" d="M11.851,17.318a1.7,1.7,0,0,1,.124-.618,5.318,5.318,0,0,1,.871-1.35,28.959,28.959,0,0,0,2.188-2.757,8.4,8.4,0,0,0,.913-1.884,7.339,7.339,0,0,0,.373-2.336A8.269,8.269,0,0,0,8.16,0,8.27,8.27,0,0,0,0,8.374a7.433,7.433,0,0,0,.805,3.377,17.358,17.358,0,0,0,2.484,3.378,7.921,7.921,0,0,1,.892,1.225,1.98,1.98,0,0,1,.288.964H6.406a3.75,3.75,0,0,0-.26-1.35,7.135,7.135,0,0,0-1.188-1.893A28.5,28.5,0,0,1,2.906,11.5a6.386,6.386,0,0,1-.7-1.435,5.3,5.3,0,0,1-.269-1.695A6.444,6.444,0,0,1,3.76,3.858a6.111,6.111,0,0,1,8.8,0,6.448,6.448,0,0,1,1.823,4.516,5.377,5.377,0,0,1-.592,2.468,15.76,15.76,0,0,1-2.228,2.988,9.791,9.791,0,0,0-1.112,1.547,4,4,0,0,0-.537,1.941h1.938Z" transform="translate(0)" fill="#fff"/>
        <line id="線_186" data-name="線 186" x2="5.245" transform="translate(5.357 19.237)" fill="#4b4b4b"/>
        <path id="パス_278" data-name="パス 278" d="M.732,1.465H5.977A.733.733,0,1,0,5.977,0H.732a.733.733,0,0,0,0,1.465" transform="translate(4.623 18.529)" fill="#fff"/>
        <line id="線_187" data-name="線 187" x2="5.245" transform="translate(5.357 21.962)" fill="#4b4b4b"/>
        <path id="パス_279" data-name="パス 279" d="M.732,1.464H5.977A.732.732,0,1,0,5.977,0H.732a.732.732,0,1,0,0,1.464" transform="translate(4.623 21.23)" fill="#fff"/>
        <path id="パス_280" data-name="パス 280" d="M0,0A1.874,1.874,0,0,0,1.648.984,1.87,1.87,0,0,0,3.3,0Z" transform="translate(6.353 23.884)" fill="#fff"/>
      </g>
    </g>
  </g>
</svg>
