<svg xmlns="http://www.w3.org/2000/svg" xmlns:xlink="http://www.w3.org/1999/xlink" width="319.09" height="219.618" viewBox="0 0 319.09 219.618">
  <defs>
    <filter id="パス_272" x="0" y="0" width="319.09" height="219.618" filterUnits="userSpaceOnUse">
      <feOffset dy="3" input="SourceAlpha"/>
      <feGaussianBlur stdDeviation="5" result="blur"/>
      <feFlood flood-opacity="0.369"/>
      <feComposite operator="in" in2="blur"/>
      <feComposite in="SourceGraphic"/>
    </filter>
    <filter id="パス_272-2" x="0" y="0" width="319.09" height="219.618" filterUnits="userSpaceOnUse">
      <feOffset dx="3" dy="3" input="SourceAlpha"/>
      <feGaussianBlur stdDeviation="3.5" result="blur-2"/>
      <feFlood flood-color="#fff" flood-opacity="0.188" result="color"/>
      <feComposite operator="out" in="SourceGraphic" in2="blur-2"/>
      <feComposite operator="in" in="color"/>
      <feComposite operator="in" in2="SourceGraphic"/>
    </filter>
  </defs>
  <g id="グループ_708" data-name="グループ 708" transform="translate(-131.972 -383)">
    <g data-type="innerShadowGroup">
      <g transform="matrix(1, 0, 0, 1, 131.97, 383)" filter="url(#パス_272)">
        <path id="パス_272-3" data-name="パス 272" d="M48.449,61.449C54.61,41.577,75.795,25.694,102.3,23.293a74.269,74.269,0,0,1,23.771,1.662A69.6,69.6,0,0,1,164.564,13.8c14.643,0,28.068,4.174,38.49,11.155a72.146,72.146,0,0,1,23.771-1.662c26.509,2.4,47.694,18.284,53.855,38.156,17.077,9.2,28.411,25.523,28.411,44.1,0,18.616-11.334,34.905-28.411,44.1-6.161,19.909-27.346,35.755-53.855,38.156a74.269,74.269,0,0,1-23.771-1.662,69.49,69.49,0,0,1-38.49,11.155c-10.725,0-20.972-.864-29.72-4.817-5.629,6.279-25.41,10.784-25.41,10.784s-3.667.332-3.477,0a38.38,38.38,0,0,0,6.026-17.123c-4.564.443-4.887,2.068-9.718,1.625-26.509-2.4-47.694-18.247-53.855-38.156C31.334,140.42,20,124.131,20,105.514,20.038,86.972,31.372,70.646,48.449,61.449Z" transform="translate(-5 -1.8)" fill="#f8b217"/>
      </g>
      <g transform="matrix(1, 0, 0, 1, 131.97, 383)" filter="url(#パス_272-2)">
        <path id="パス_272-4" data-name="パス 272" d="M48.449,61.449C54.61,41.577,75.795,25.694,102.3,23.293a74.269,74.269,0,0,1,23.771,1.662A69.6,69.6,0,0,1,164.564,13.8c14.643,0,28.068,4.174,38.49,11.155a72.146,72.146,0,0,1,23.771-1.662c26.509,2.4,47.694,18.284,53.855,38.156,17.077,9.2,28.411,25.523,28.411,44.1,0,18.616-11.334,34.905-28.411,44.1-6.161,19.909-27.346,35.755-53.855,38.156a74.269,74.269,0,0,1-23.771-1.662,69.49,69.49,0,0,1-38.49,11.155c-10.725,0-20.972-.864-29.72-4.817-5.629,6.279-25.41,10.784-25.41,10.784s-3.667.332-3.477,0a38.38,38.38,0,0,0,6.026-17.123c-4.564.443-4.887,2.068-9.718,1.625-26.509-2.4-47.694-18.247-53.855-38.156C31.334,140.42,20,124.131,20,105.514,20.038,86.972,31.372,70.646,48.449,61.449Z" transform="translate(-5 -1.8)" fill="#fff"/>
      </g>
    </g>
    <path id="パス_271" data-name="パス 271" d="M46.187,55.235c5.672-17.281,25.172-31.092,49.573-33.18A72.258,72.258,0,0,1,117.641,23.5c9.593-6.039,21.951-9.7,35.429-9.7s25.837,3.63,35.429,9.7a70.19,70.19,0,0,1,21.881-1.445c24.4,2.088,43.9,15.9,49.573,33.18,15.719,8,26.152,22.195,26.152,38.351,0,16.188-10.433,30.353-26.152,38.351-5.672,17.313-25.172,31.092-49.573,33.18a72.258,72.258,0,0,1-21.881-1.445c-9.628,6.071-21.986,9.7-35.429,9.7a69.277,69.277,0,0,1-27.167-5.4c-5.181,5.46-12.568,11.66-21.356,14.647a.335.335,0,0,1-.42-.482c2.766-4.079,4.026-11.338,4.586-17.088a73.028,73.028,0,0,1-12.988.032c-24.4-2.088-43.9-15.867-49.573-33.18C30.433,123.907,20,109.742,20,93.554,20.035,77.43,30.468,63.233,46.187,55.235Z" transform="translate(138.24 393.245)" fill="#f8b217"/>
    <path id="パス_271_-_アウトライン" data-name="パス 271 - アウトライン" d="M153.07,12.55c1.354,0,2.722.037,4.066.109a1.25,1.25,0,0,1-.134,2.5c-1.3-.07-2.622-.105-3.932-.105-.307,0-.619,0-.925.006h-.016a1.25,1.25,0,0,1-.016-2.5C152.431,12.552,152.753,12.55,153.07,12.55Zm-6.93.326a1.25,1.25,0,0,1,.117,2.495c-1.3.124-2.615.285-3.9.48a1.25,1.25,0,1,1-.374-2.472c1.331-.2,2.69-.369,4.039-.5C146.061,12.878,146.1,12.876,146.141,12.876Zm16.9.349a1.262,1.262,0,0,1,.171.012c1.344.184,2.695.409,4.015.667a1.25,1.25,0,1,1-.479,2.454c-1.274-.249-2.578-.466-3.876-.644a1.25,1.25,0,0,1,.168-2.489Zm-26.755,1.29a1.25,1.25,0,0,1,.292,2.466c-1.273.307-2.547.654-3.787,1.031a1.25,1.25,0,1,1-.728-2.392c1.287-.392,2.609-.752,3.93-1.07A1.254,1.254,0,0,1,136.284,14.515Zm36.532.771a1.251,1.251,0,0,1,.347.049c1.308.377,2.613.8,3.88,1.249a1.25,1.25,0,1,1-.839,2.355c-1.219-.434-2.476-.839-3.735-1.2a1.25,1.25,0,0,1,.346-2.451Zm-46.044,2.289a1.25,1.25,0,0,1,.474,2.407c-1.213.5-2.416,1.034-3.576,1.6a1.25,1.25,0,1,1-1.095-2.248c1.209-.589,2.462-1.149,3.724-1.666A1.246,1.246,0,0,1,126.772,17.575Zm55.4,1.216a1.245,1.245,0,0,1,.53.119c1.238.581,2.462,1.206,3.637,1.858a1.25,1.25,0,1,1-1.213,2.186c-1.126-.625-2.3-1.224-3.486-1.78a1.25,1.25,0,0,1,.532-2.382Zm21.8,1.731c.4,0,.8,0,1.2.01a1.25,1.25,0,0,1-.041,2.5c-.386-.006-.778-.01-1.164-.01-.92,0-1.85.018-2.766.054a1.25,1.25,0,1,1-.1-2.5C202.053,20.54,203.016,20.521,203.969,20.521Zm-99.931.047h.035c1.354.037,2.72.112,4.062.223a1.25,1.25,0,0,1-.206,2.492c-1.3-.107-2.617-.18-3.925-.215a1.25,1.25,0,0,1,.033-2.5Zm-6,.08a1.25,1.25,0,0,1,.066,2.5c-.744.04-1.5.092-2.242.155-.556.048-1.121.1-1.677.163a1.25,1.25,0,0,1-.271-2.485c.575-.063,1.159-.119,1.736-.169.771-.065,1.551-.119,2.32-.16Zm113.1.226q.06,0,.121.006c1.348.129,2.706.3,4.037.5a1.25,1.25,0,1,1-.374,2.472c-1.286-.195-2.6-.357-3.9-.482a1.25,1.25,0,0,1,.118-2.494Zm-15.964.193a1.25,1.25,0,0,1,.154,2.49c-1.3.163-2.6.367-3.879.6A1.25,1.25,0,0,1,191,21.7c1.322-.246,2.676-.457,4.025-.627A1.263,1.263,0,0,1,195.177,21.067Zm-81.2.464a1.259,1.259,0,0,1,.209.018c1.09.184,2.184.395,3.261.629a1.25,1.25,0,0,1,1.08,2.239l-.225.141-.437.275-.5-.113c-1.181-.265-2.389-.5-3.591-.705a1.25,1.25,0,0,1,.206-2.483Zm-25.859.333a1.25,1.25,0,0,1,.236,2.477c-1.285.249-2.576.536-3.835.854a1.25,1.25,0,0,1-.613-2.424c1.3-.33,2.641-.628,3.973-.885A1.257,1.257,0,0,1,88.123,21.864ZM221,22.507a1.253,1.253,0,0,1,.291.034c1.32.315,2.643.67,3.932,1.057a1.25,1.25,0,0,1-.719,2.394c-1.243-.373-2.519-.716-3.793-1.02A1.25,1.25,0,0,1,221,22.507ZM78.473,24.455a1.25,1.25,0,0,1,.411,2.431c-1.237.431-2.47.9-3.665,1.4a1.25,1.25,0,0,1-.964-2.307c1.241-.519,2.522-1.008,3.807-1.456A1.249,1.249,0,0,1,78.473,24.455Zm152.053,1.069a1.246,1.246,0,0,1,.465.09c1.264.507,2.521,1.056,3.736,1.633a1.25,1.25,0,1,1-1.073,2.258c-1.168-.555-2.377-1.084-3.593-1.571a1.25,1.25,0,0,1,.465-2.411ZM69.316,28.454a1.25,1.25,0,0,1,.59,2.353c-1.155.618-2.3,1.277-3.39,1.96a1.25,1.25,0,0,1-1.323-2.121c1.141-.712,2.33-1.4,3.535-2.043A1.244,1.244,0,0,1,69.316,28.454ZM239.477,29.96a1.244,1.244,0,0,1,.643.179c1.172.705,2.325,1.454,3.427,2.226a1.25,1.25,0,1,1-1.435,2.047c-1.054-.739-2.158-1.456-3.281-2.131a1.25,1.25,0,0,1,.646-2.321ZM60.941,33.895a1.25,1.25,0,0,1,.772,2.234c-1.031.808-2.033,1.657-2.978,2.523a1.25,1.25,0,0,1-1.689-1.843c.992-.909,2.044-1.8,3.125-2.647A1.245,1.245,0,0,1,60.941,33.895Zm186.6,1.95a1.245,1.245,0,0,1,.827.313c1.032.91,2.029,1.864,2.963,2.833a1.25,1.25,0,1,1-1.8,1.735c-.888-.921-1.836-1.827-2.818-2.694a1.25,1.25,0,0,1,.828-2.187ZM53.727,40.794a1.25,1.25,0,0,1,.952,2.059c-.846,1-1.646,2.029-2.379,3.072a1.25,1.25,0,1,1-2.045-1.438c.776-1.1,1.624-2.2,2.518-3.252A1.247,1.247,0,0,1,53.727,40.794Zm200.58,2.391a1.248,1.248,0,0,1,1.007.509c.821,1.115,1.589,2.268,2.283,3.429a1.25,1.25,0,1,1-2.146,1.282c-.652-1.092-1.375-2.178-2.149-3.228a1.25,1.25,0,0,1,1.005-1.992ZM48.2,49.1a1.25,1.25,0,0,1,1.118,1.808,35.566,35.566,0,0,0-1.535,3.544,1.25,1.25,0,0,1-2.345-.866,38.08,38.08,0,0,1,1.644-3.794A1.25,1.25,0,0,1,48.2,49.1Zm210.987,2.782a1.25,1.25,0,0,1,1.161.786c.223.557.433,1.122.627,1.687.382.2.762.4,1.135.606a1.25,1.25,0,1,1-1.2,2.193c-.5-.274-1.014-.545-1.525-.8l-.46-.234-.161-.49c-.222-.677-.47-1.36-.738-2.029a1.251,1.251,0,0,1,1.16-1.714ZM42.077,56.29a1.25,1.25,0,0,1,.657,2.314c-1.113.686-2.207,1.416-3.251,2.169a1.25,1.25,0,1,1-1.462-2.028c1.094-.789,2.238-1.553,3.4-2.27A1.244,1.244,0,0,1,42.077,56.29ZM266.615,57.96a1.244,1.244,0,0,1,.712.224c1.124.781,2.225,1.609,3.271,2.46a1.25,1.25,0,0,1-1.577,1.94c-1-.811-2.049-1.6-3.122-2.347a1.25,1.25,0,0,1,.715-2.277ZM34.095,62.288a1.25,1.25,0,0,1,.843,2.173c-.964.88-1.9,1.8-2.77,2.741a1.25,1.25,0,1,1-1.83-1.7c.92-.989,1.9-1.959,2.914-2.885A1.246,1.246,0,0,1,34.095,62.288Zm240.138,2.125a1.246,1.246,0,0,1,.9.381c.956.988,1.873,2.021,2.727,3.068a1.25,1.25,0,0,1-1.938,1.579c-.809-.993-1.679-1.972-2.586-2.909a1.25,1.25,0,0,1,.9-2.119ZM27.461,69.744a1.25,1.25,0,0,1,1.017,1.975c-.755,1.06-1.462,2.158-2.1,3.263a1.25,1.25,0,0,1-2.162-1.255c.68-1.172,1.43-2.336,2.23-3.459A1.248,1.248,0,0,1,27.461,69.744Zm252.893,2.55a1.249,1.249,0,0,1,1.069.6c.718,1.178,1.381,2.394,1.972,3.617a1.25,1.25,0,0,1-2.251,1.088c-.556-1.15-1.181-2.3-1.856-3.4a1.25,1.25,0,0,1,1.066-1.9ZM22.674,78.5a1.251,1.251,0,0,1,1.162,1.711A37.44,37.44,0,0,0,22.6,83.873,1.25,1.25,0,1,1,20.19,83.2a39.94,39.94,0,0,1,1.321-3.911A1.251,1.251,0,0,1,22.674,78.5Zm261.789,2.886a1.25,1.25,0,0,1,1.195.884,39.085,39.085,0,0,1,1,4.008,1.25,1.25,0,1,1-2.455.475A36.59,36.59,0,0,0,283.267,83a1.251,1.251,0,0,1,1.2-1.616ZM20.238,88.166a1.251,1.251,0,0,1,1.243,1.392,36.164,36.164,0,0,0-.231,3.857,1.25,1.25,0,1,1-2.5-.015A38.665,38.665,0,0,1,19,89.275,1.25,1.25,0,0,1,20.238,88.166ZM286.09,91.22a1.25,1.25,0,0,1,1.249,1.213c.011.382.017.77.017,1.154,0,.991-.039,1.993-.115,2.977a1.25,1.25,0,0,1-2.493-.192c.071-.921.107-1.858.107-2.785,0-.358-.005-.721-.016-1.079a1.25,1.25,0,0,1,1.212-1.287ZM20.458,98.134a1.25,1.25,0,0,1,1.233,1.055,36.408,36.408,0,0,0,.806,3.78,1.25,1.25,0,0,1-2.414.651,38.915,38.915,0,0,1-.862-4.04,1.251,1.251,0,0,1,1.236-1.445Zm264.6,3a1.251,1.251,0,0,1,1.216,1.545,39.508,39.508,0,0,1-1.182,3.956,1.25,1.25,0,1,1-2.355-.84,36.986,36.986,0,0,0,1.107-3.7A1.251,1.251,0,0,1,285.054,101.136ZM23.3,107.691a1.25,1.25,0,0,1,1.143.742c.519,1.167,1.107,2.33,1.749,3.458a1.25,1.25,0,1,1-2.173,1.236c-.682-1.2-1.307-2.436-1.86-3.678a1.251,1.251,0,0,1,1.141-1.758Zm258.175,2.752a1.25,1.25,0,0,1,1.1,1.842c-.643,1.195-1.357,2.382-2.122,3.528a1.25,1.25,0,0,1-2.079-1.388c.722-1.081,1.394-2.2,2-3.325A1.25,1.25,0,0,1,281.473,110.443ZM28.425,116.25a1.248,1.248,0,0,1,.991.488c.781,1.014,1.624,2.016,2.506,2.976a1.25,1.25,0,0,1-1.842,1.691c-.93-1.014-1.82-2.071-2.645-3.142a1.25,1.25,0,0,1,.99-2.012Zm247.328,2.37a1.25,1.25,0,0,1,.938,2.076c-.893,1.014-1.848,2.01-2.839,2.963a1.25,1.25,0,0,1-1.732-1.8c.941-.9,1.848-1.851,2.695-2.812A1.247,1.247,0,0,1,275.753,118.62ZM35.321,123.469a1.245,1.245,0,0,1,.811.3c.978.835,2.009,1.648,3.064,2.419a1.25,1.25,0,0,1-1.474,2.019c-1.107-.808-2.188-1.661-3.214-2.537a1.25,1.25,0,0,1,.812-2.2Zm233.1,1.931a1.25,1.25,0,0,1,.756,2.246c-1.074.814-2.2,1.6-3.349,2.349a1.25,1.25,0,0,1-1.36-2.1c1.1-.711,2.173-1.466,3.2-2.243A1.245,1.245,0,0,1,268.423,125.4ZM43.491,129.212a1.244,1.244,0,0,1,.623.167c.848.488,1.725.963,2.605,1.412l.46.234.161.491c.1.295.2.593.3.886a1.25,1.25,0,1,1-2.353.844q-.082-.229-.162-.462c-.765-.4-1.524-.813-2.263-1.239a1.25,1.25,0,0,1,.625-2.333Zm216.462,1.476a1.251,1.251,0,0,1,1.188,1.64,37.368,37.368,0,0,1-1.507,3.853,1.25,1.25,0,1,1-2.275-1.037,34.863,34.863,0,0,0,1.406-3.594A1.251,1.251,0,0,1,259.953,130.689ZM48.944,137.031a1.25,1.25,0,0,1,1.095.645c.616,1.112,1.3,2.219,2.045,3.292a1.25,1.25,0,1,1-2.057,1.421c-.788-1.14-1.519-2.318-2.175-3.5a1.25,1.25,0,0,1,1.092-1.856Zm206.649,2.625a1.25,1.25,0,0,1,1.043,1.937c-.742,1.129-1.556,2.249-2.421,3.329a1.25,1.25,0,0,1-1.952-1.562c.816-1.019,1.584-2.076,2.283-3.14A1.249,1.249,0,0,1,255.594,139.655ZM54.8,145.113a1.247,1.247,0,0,1,.923.407c.862.944,1.786,1.874,2.745,2.765a1.25,1.25,0,0,1-1.7,1.832c-1.01-.937-1.982-1.916-2.891-2.911a1.25,1.25,0,0,1,.923-2.093Zm194.4,2.2a1.25,1.25,0,0,1,.868,2.149c-.969.935-2,1.852-3.059,2.726a1.25,1.25,0,0,1-1.59-1.93c1.011-.833,1.991-1.706,2.912-2.6A1.246,1.246,0,0,1,249.2,147.316ZM62.239,151.769a1.244,1.244,0,0,1,.739.243c1.036.762,2.124,1.5,3.232,2.2a1.25,1.25,0,0,1-1.335,2.114c-1.158-.731-2.294-1.505-3.378-2.3a1.25,1.25,0,0,1,.741-2.257Zm179.139,1.76a1.25,1.25,0,0,1,.686,2.3c-1.125.737-2.3,1.45-3.492,2.12a1.25,1.25,0,1,1-1.225-2.18c1.142-.642,2.268-1.325,3.346-2.031A1.244,1.244,0,0,1,241.378,153.528ZM70.77,156.962a1.245,1.245,0,0,1,.558.132c1.156.578,2.355,1.13,3.561,1.64a1.25,1.25,0,1,1-.974,2.3c-1.255-.531-2.5-1.1-3.7-1.706a1.25,1.25,0,0,1,.56-2.368Zm161.824,1.321a1.25,1.25,0,0,1,.505,2.394c-1.231.543-2.5,1.057-3.779,1.529a1.25,1.25,0,1,1-.867-2.345c1.229-.454,2.452-.949,3.637-1.472A1.246,1.246,0,0,1,232.593,158.283ZM80.026,160.719a1.249,1.249,0,0,1,.382.06c1.236.4,2.5.762,3.773,1.088a1.25,1.25,0,0,1-.623,2.421c-1.315-.338-2.631-.718-3.913-1.128a1.25,1.25,0,0,1,.381-2.441Zm143.149.892a1.25,1.25,0,0,1,.328,2.456c-1.3.353-2.63.675-3.957.957a1.25,1.25,0,0,1-.519-2.446c1.281-.272,2.566-.582,3.818-.923A1.252,1.252,0,0,1,223.175,161.611ZM189.5,162.638a1.255,1.255,0,0,1,.257.027c1.271.266,2.572.5,3.866.693a1.25,1.25,0,1,1-.37,2.472c-1.341-.2-2.69-.442-4.008-.718a1.25,1.25,0,0,1,.255-2.474Zm-99.762.437a1.258,1.258,0,0,1,.21.018c1.282.217,2.592.4,3.893.549a1.25,1.25,0,1,1-.281,2.484c-1.346-.152-2.7-.344-4.028-.568a1.25,1.25,0,0,1,.207-2.483Zm123.639.475a1.25,1.25,0,0,1,.156,2.49c-1,.127-2.028.236-3.042.322-.336.028-.674.055-1.008.078a1.25,1.25,0,0,1-.177-2.494c.323-.023.65-.048.973-.075.978-.084,1.968-.189,2.939-.312A1.264,1.264,0,0,1,213.373,163.55Zm-13.976.43.082,0c1.3.084,2.62.133,3.928.146a1.25,1.25,0,1,1-.024,2.5c-1.354-.013-2.722-.064-4.065-.151a1.25,1.25,0,0,1,.079-2.5Zm-99.718.09h.041c.77.025,1.55.038,2.32.038.534,0,1.076-.006,1.611-.018a1.25,1.25,0,0,1,.056,2.5c-.553.012-1.114.019-1.667.019-.8,0-1.6-.013-2.4-.039a1.25,1.25,0,0,1,.04-2.5Zm8.935.684a1.265,1.265,0,0,1,.136.007,1.25,1.25,0,0,1,1.108,1.377c-.151,1.395-.332,2.75-.537,4.029a1.25,1.25,0,1,1-2.468-.4c.2-1.237.373-2.549.52-3.9A1.25,1.25,0,0,1,108.614,164.754Zm75.562.134a1.25,1.25,0,0,1,.573,2.362c-1.2.615-2.437,1.2-3.689,1.746a1.25,1.25,0,0,1-.995-2.294c1.2-.521,2.393-1.085,3.54-1.675A1.245,1.245,0,0,1,184.176,164.888Zm-58.581,1.6.908.387a1.25,1.25,0,0,1-.025,2.311c-.806.839-1.63,1.659-2.454,2.442a1.25,1.25,0,0,1-1.723-1.812c.906-.861,1.813-1.769,2.695-2.7Zm49.358,2.236a1.25,1.25,0,0,1,.387,2.439c-1.279.417-2.594.8-3.91,1.145a1.25,1.25,0,0,1-.631-2.419c1.267-.33,2.534-.7,3.766-1.1A1.249,1.249,0,0,1,174.952,168.721Zm-43.314.134a1.25,1.25,0,0,1,.38.059c1.235.394,2.505.757,3.773,1.08a1.25,1.25,0,0,1-.616,2.423c-1.316-.335-2.634-.712-3.917-1.121a1.25,1.25,0,0,1,.379-2.441Zm33.613,2.249a1.25,1.25,0,0,1,.208,2.483c-1.327.225-2.683.417-4.03.569a1.25,1.25,0,1,1-.28-2.484c1.3-.147,2.61-.331,3.891-.549A1.26,1.26,0,0,1,165.251,171.1Zm-23.9.075a1.259,1.259,0,0,1,.2.017c1.282.21,2.593.387,3.894.525a1.25,1.25,0,0,1-.265,2.486c-1.348-.143-2.7-.326-4.033-.544a1.25,1.25,0,0,1,.2-2.484Zm13.952.91a1.25,1.25,0,0,1,.037,2.5c-.753.023-1.518.034-2.273.034-.6,0-1.2-.007-1.795-.021a1.25,1.25,0,1,1,.059-2.5c.575.014,1.159.021,1.735.021.73,0,1.47-.011,2.2-.033Zm-36.667,1.322a1.25,1.25,0,0,1,.778,2.229c-1.083.86-2.188,1.678-3.283,2.431a1.25,1.25,0,0,1-1.416-2.06c1.048-.721,2.106-1.5,3.145-2.329A1.245,1.245,0,0,1,118.639,173.41Zm-11.811,1.172a1.251,1.251,0,0,1,1.2,1.59,30.189,30.189,0,0,1-1.385,3.935,1.25,1.25,0,1,1-2.288-1.007,27.705,27.705,0,0,0,1.267-3.606A1.251,1.251,0,0,1,106.828,174.582Zm3.466,4.311a1.25,1.25,0,0,1,.58,2.358c-1.237.647-2.493,1.231-3.733,1.736a1.25,1.25,0,1,1-.943-2.315c1.167-.475,2.351-1.026,3.518-1.636A1.244,1.244,0,0,1,110.294,178.893Z" transform="translate(138.24 393.245)" fill="#fff"/>
    <text id="お子さんの年齢に合わせた_カリキュラムをご用意_" data-name="お子さんの年齢に合わせた
カリキュラムをご用意！" transform="translate(292.454 436.28)" fill="#1c1c1c" font-size="12" font-family="NotoSansJP-Medium, Noto Sans JP" font-weight="500" letter-spacing="0.05em"><tspan x="-75.3" y="0">お</tspan><tspan y="0">子</tspan><tspan y="0">さんの</tspan><tspan y="0">年齢</tspan><tspan y="0">に</tspan><tspan y="0">合</tspan><tspan y="0">わせた</tspan><tspan x="-68.82" y="17">カリキュラムをご</tspan><tspan y="17">用意！</tspan></text>
    <path id="パス_267" data-name="パス 267" d="M-22.779-25.486l-2.726-.274a20.281,20.281,0,0,1-.384,3.879c-.933.073-1.793.128-2.36.146a17.467,17.467,0,0,1-1.958,0l.22,2.488c.549-.091,1.519-.22,2.031-.311.348-.037.915-.11,1.574-.183a27.506,27.506,0,0,1-3.7,8.6l2.379.951A38.562,38.562,0,0,0-23.969-20c.512-.037.97-.073,1.263-.073,1.153,0,1.775.2,1.775,1.665a14.564,14.564,0,0,1-.732,5.068,1.356,1.356,0,0,1-1.372.787,10.72,10.72,0,0,1-2.251-.384l.4,2.415a11.837,11.837,0,0,0,2.2.256,2.923,2.923,0,0,0,3-1.683c.787-1.592,1.043-4.556,1.043-6.715,0-2.635-1.372-3.495-3.312-3.495-.384,0-.933.037-1.537.073.128-.659.256-1.336.384-1.885C-23.017-24.424-22.889-25.01-22.779-25.486Zm6.294,1.72-2.177.933a21.039,21.039,0,0,1,3.074,6.953l2.324-1.08A31.626,31.626,0,0,0-16.485-23.766Zm9.661-1.994-.586,2.2C-5.982-23.2-1.9-22.338-.054-22.1l.549-2.232A56,56,0,0,1-6.824-25.76Zm.11,3.678-2.452-.348a67.5,67.5,0,0,1-.915,7.648l2.1.531A4.433,4.433,0,0,1-7.3-15.312a6.514,6.514,0,0,1,5.087-2.159c1.592,0,2.726.878,2.726,2.068,0,2.324-2.909,3.659-8.4,2.909l.7,2.4c7.612.64,10.247-1.921,10.247-5.251,0-2.214-1.866-4.19-5.068-4.19A8.957,8.957,0,0,0-7.41-17.8C-7.281-18.844-6.952-21.076-6.714-22.082Z" transform="translate(376.475 506.013)" fill="#0018b8"/>
    <path id="パス_267_-_アウトライン" data-name="パス 267 - アウトライン" d="M-25.506-25.76a20.281,20.281,0,0,1-.384,3.879c-.933.073-1.793.128-2.36.146a17.466,17.466,0,0,1-1.958,0l.22,2.488c.549-.091,1.519-.22,2.031-.311.348-.037.915-.11,1.574-.183a27.506,27.506,0,0,1-3.7,8.6l2.379.951A38.561,38.561,0,0,0-23.969-20c.512-.037.97-.073,1.263-.073,1.153,0,1.775.2,1.775,1.665a14.564,14.564,0,0,1-.732,5.068,1.356,1.356,0,0,1-1.372.787,10.72,10.72,0,0,1-2.251-.384l.4,2.415a11.836,11.836,0,0,0,2.2.256,2.923,2.923,0,0,0,3-1.683c.787-1.592,1.043-4.556,1.043-6.715,0-2.635-1.372-3.495-3.312-3.495-.384,0-.933.037-1.537.073.128-.659.256-1.336.384-1.885.091-.457.22-1.043.329-1.519l-2.726-.274m18.682,0-.586,2.2C-5.982-23.2-1.9-22.338-.054-22.1l.549-2.232A56,56,0,0,1-6.824-25.76m-9.661,1.994-2.177.933a21.039,21.039,0,0,1,3.074,6.953l2.324-1.08a31.626,31.626,0,0,0-3.22-6.807m7.319,1.336a67.5,67.5,0,0,1-.915,7.648l2.1.531A4.433,4.433,0,0,1-7.3-15.312a6.514,6.514,0,0,1,5.087-2.159c1.592,0,2.726.878,2.726,2.068,0,2.324-2.909,3.659-8.4,2.909l.7,2.4c7.612.64,10.247-1.921,10.247-5.251,0-2.214-1.866-4.19-5.068-4.19a8.957,8.957,0,0,0-5.4,1.738c.128-1.043.457-3.275.7-4.282l-2.452-.348m-16.34-5.33a2,2,0,0,1,.2.01l2.726.274a2,2,0,0,1,1.425.825,2,2,0,0,1,.323,1.615c-.07.3-.143.633-.208.935a6.16,6.16,0,0,1,.729.134,2,2,0,0,1,.859-.7l2.177-.933a2,2,0,0,1,2.41.669,32.934,32.934,0,0,1,3.286,6.727c.185-1.483.344-3.107.414-4.334a2,2,0,0,1,.729-1.434,2,2,0,0,1,1.185-.452l.493-1.847a2,2,0,0,1,.97-1.238,2,2,0,0,1,1.565-.154A54.4,54.4,0,0,0,.723-26.32a2,2,0,0,1,1.414.845,2,2,0,0,1,.3,1.619l-.549,2.232a1.993,1.993,0,0,1-.416.815,6.6,6.6,0,0,1,1.58,1.039,5.851,5.851,0,0,1,2,4.42A6.507,6.507,0,0,1,2.471-9.963C.758-8.66-1.746-8-4.972-8c-.75,0-1.552-.036-2.386-.106A2,2,0,0,1-9.111-9.54l-.7-2.4a2,2,0,0,1-.072-.73l-.692-.175a2,2,0,0,1-1.471-2.339q.023-.11.046-.232a2,2,0,0,1-.427.268l-2.324,1.08a2,2,0,0,1-1.718-.015,2,2,0,0,1-.483-.33,11.965,11.965,0,0,1-.94,3.336,4.872,4.872,0,0,1-4.8,2.813,14.053,14.053,0,0,1-2.6-.3,2,2,0,0,1-.842-.394,2,2,0,0,1-2.315.621l-2.379-.951A2,2,0,0,1-32-10.595a2,2,0,0,1,.317-1.736,20.254,20.254,0,0,0,2.473-5.012c-.167.025-.321.049-.445.069a2,2,0,0,1-1.553-.391,2,2,0,0,1-.768-1.406l-.22-2.488a2,2,0,0,1,.575-1.587,2,2,0,0,1,1.584-.582c.181.015.371.022.6.022.244,0,.5-.008.772-.017l.362-.011c.191-.006.422-.017.687-.032a14.7,14.7,0,0,0,.117-1.962,2,2,0,0,1,.647-1.5A2,2,0,0,1-25.506-27.76Zm2.17,13.185A9.5,9.5,0,0,0-23.1-15.8c-.126.388-.262.789-.407,1.2Zm21.844-.736a1.376,1.376,0,0,0-.721-.159,4.709,4.709,0,0,0-3.309,1.178q.242.008.474.008a6.344,6.344,0,0,0,3.142-.581C-1.585-15.053-1.51-15.2-1.492-15.312Z" transform="translate(376.475 506.013)" fill="#fff"/>
    <path id="パス_269" data-name="パス 269" d="M-66.4-26.685V-3.172c0,.579-.244.793-.915.793-.671.03-2.928.03-4.91-.061a16.32,16.32,0,0,1,1.433,3.782c2.958,0,5.032-.122,6.465-.7,1.342-.579,1.86-1.586,1.86-3.812V-26.685Zm7.258,7.96c2.409,4.453,4.727,10.186,5.337,13.876L-49.837-6.4c-.762-3.812-3.263-9.332-5.733-13.663Zm-15.248-1.006c-.64,3.965-2.165,9.3-4.6,12.382a30.546,30.546,0,0,1,3.538,1.891c2.531-3.355,4.178-9.027,5.215-13.571Zm33.668.64h19.457v4.209h3.568v-7.411H-21.75c.823-1.067,1.738-2.287,2.562-3.446l-3.934-1.189a25.493,25.493,0,0,1-2.623,4.635H-30.35l1.464-.579a17.882,17.882,0,0,0-2.379-4.392l-3.2,1.159a21.281,21.281,0,0,1,1.921,3.812h-4.788l1.1-.518a16.621,16.621,0,0,0-2.775-4l-3.08,1.372a25.655,25.655,0,0,1,2.1,3.141h-4.148v7.411h3.416Zm23.33,9.18H-28.916A29.538,29.538,0,0,0-22.3-15.157l-2.287-1.769-.793.183H-39.072V-13.6h10.338a20.63,20.63,0,0,1-2.348,1.677H-32.82v2.013H-44.531v3.324H-32.82v3.965c0,.427-.152.549-.793.549-.61.03-2.867.03-4.818-.061A16.19,16.19,0,0,1-36.937,1.4,18.49,18.49,0,0,0-31.021.823C-29.526.305-29.13-.64-29.13-2.531V-6.587h11.741Zm7.2,8.631H3.38V-4.91H-.859V-23.879H-4.184a14.079,14.079,0,0,1-5.245,1.921v2.775h4.087V-4.91h-4.849ZM18.079-8.6v-4.635h5.276V-8.6Zm19.457,0H27.106v-4.635h8.051v-3.385H27.106V-20.25h8.753v-3.507H18.628a19.47,19.47,0,0,0,1.006-2.5l-3.69-.945a23.518,23.518,0,0,1-6.4,10.155A28.068,28.068,0,0,1,12.681-14.7a27.407,27.407,0,0,0,4.148-5.55h6.526v3.629H14.45V-8.6H9.631v3.477H23.355V1.4h3.751V-5.123h10.43ZM59.067-3.05v-6.13h9.119v-3.507H59.067v-5.367H69.344v-3.538H59.067v-5.489H55.255v5.489h-4.7c.518-1.4,1.006-2.836,1.433-4.3l-3.751-.823c-1.037,4.148-3.019,8.356-5.4,10.918a28.839,28.839,0,0,1,3.263,2.165,25.135,25.135,0,0,0,2.836-4.422h6.313v5.367H46.99v3.507h8.265v6.13H43.483V.519H70.9V-3.05Z" transform="translate(266.881 494.612)" fill="#0018b8"/>
    <path id="パス_269_-_アウトライン" data-name="パス 269 - アウトライン" d="M-31.265-27.264l-3.2,1.159a21.282,21.282,0,0,1,1.921,3.812h-4.788l1.1-.518a16.62,16.62,0,0,0-2.775-4l-3.08,1.372a25.654,25.654,0,0,1,2.1,3.141h-4.148v7.411h3.416v-4.209h19.457v4.209h3.568v-7.411H-21.75c.823-1.067,1.738-2.287,2.562-3.446l-3.934-1.189a25.494,25.494,0,0,1-2.623,4.635h-4.6l1.464-.579a17.883,17.883,0,0,0-2.379-4.392m47.209.061a23.518,23.518,0,0,1-6.4,10.155A28.069,28.069,0,0,1,12.681-14.7a27.408,27.408,0,0,0,4.148-5.55h6.526v3.629H14.45V-8.6H9.631v3.477H23.355V1.4h3.751V-5.123h10.43V-8.6H27.106v-4.635h8.051v-3.385H27.106V-20.25h8.753v-3.507H18.628a19.471,19.471,0,0,0,1.006-2.5l-3.69-.945M23.355-8.6H18.079v-4.635h5.276V-8.6m31.9-18.481v5.489h-4.7c.518-1.4,1.006-2.836,1.433-4.3l-3.751-.823c-1.037,4.148-3.019,8.356-5.4,10.918a28.839,28.839,0,0,1,3.263,2.165,25.134,25.134,0,0,0,2.836-4.422h6.313v5.367H46.99v3.507h8.265v6.13H43.483V.518H70.9V-3.05H59.067v-6.13h9.118v-3.507H59.067v-5.367H69.344v-3.538H59.067v-5.489H55.255m-121.651.4V-3.172c0,.579-.244.793-.915.793-.671.03-2.928.031-4.91-.061a16.32,16.32,0,0,1,1.433,3.782c2.958,0,5.032-.122,6.465-.7,1.342-.579,1.86-1.586,1.86-3.812V-26.685H-66.4m62.213,2.806a14.079,14.079,0,0,1-5.245,1.921v2.775h4.087V-4.91h-4.849v3.629H3.38V-4.91H-.859V-23.879H-4.184m-51.387,3.812-3.568,1.342c2.409,4.453,4.727,10.186,5.337,13.876L-49.837-6.4c-.762-3.812-3.263-9.332-5.733-13.663m-18.816.335c-.64,3.965-2.165,9.3-4.6,12.382a30.545,30.545,0,0,1,3.538,1.891c2.531-3.355,4.178-9.027,5.215-13.571l-4.148-.7m49.8,2.806-.793.183H-39.072V-13.6h10.338a20.631,20.631,0,0,1-2.348,1.677H-32.82v2.013H-44.531v3.324H-32.82v3.965c0,.427-.152.549-.793.549-.61.03-2.867.031-4.818-.061A16.19,16.19,0,0,1-36.937,1.4,18.49,18.49,0,0,0-31.021.823C-29.526.305-29.13-.64-29.13-2.531V-6.587h11.741V-9.911H-28.916A29.537,29.537,0,0,0-22.3-15.157l-2.287-1.769m-6.679-13.539a3.2,3.2,0,0,1,2.568,1.29,22.3,22.3,0,0,1,1.748,2.8,16,16,0,0,0,.861-1.75A3.2,3.2,0,0,1-22.2-29.992l3.934,1.189a3.2,3.2,0,0,1,2.1,2.027,3.2,3.2,0,0,1,.1,1.728,3.2,3.2,0,0,1,1.57,2.754v7.411a3.192,3.192,0,0,1-1.041,2.362,3.2,3.2,0,0,1,1.346,2.609v3.324a3.2,3.2,0,0,1-3.2,3.2H-25.93v.856a7.766,7.766,0,0,1-.76,3.695A5.641,5.641,0,0,1-29.95,3.839a20.914,20.914,0,0,1-6.987.764,3.2,3.2,0,0,1-3.115-2.467,13.36,13.36,0,0,0-1.168-2.7,3.2,3.2,0,0,1-.156-2.821h-3.155A3.2,3.2,0,0,1-47.122-4.71a3.193,3.193,0,0,1-1.546,1.285L-52.633-1.87a3.2,3.2,0,0,1-2.749-.2,3.2,3.2,0,0,1-1.577-2.261,36.147,36.147,0,0,0-2.3-7.222v8.377A8.706,8.706,0,0,1-60.02.769a5.845,5.845,0,0,1-3.034,2.81l-.069.029c-1.934.782-4.275.935-7.665.935A3.2,3.2,0,0,1-73.926,1.97a13.348,13.348,0,0,0-1.1-2.877,3.2,3.2,0,0,1-.386-1.352A3.188,3.188,0,0,1-77.229-2.8a27.439,27.439,0,0,0-3.08-1.637A3.2,3.2,0,0,1-82.1-6.594a3.2,3.2,0,0,1,.6-2.742c1.673-2.113,3.226-6.393,3.954-10.905a3.2,3.2,0,0,1,1.3-2.091,3.2,3.2,0,0,1,2.4-.554l4.148.7.109.02v-4.52a3.2,3.2,0,0,1,3.2-3.2h3.934a3.2,3.2,0,0,1,3.2,3.2V-22.1l2.566-.965a3.2,3.2,0,0,1,3.906,1.41A68.263,68.263,0,0,1-47.669-10.54a3.2,3.2,0,0,1,1.337-2.016,3.191,3.191,0,0,1-1-2.326v-7.411a3.2,3.2,0,0,1,2.047-2.986,3.2,3.2,0,0,1,.093-.936,3.2,3.2,0,0,1,1.8-2.142l3.08-1.372a3.2,3.2,0,0,1,3.684.786c.072.08.154.173.245.277a3.2,3.2,0,0,1,.829-.447l3.2-1.159A3.2,3.2,0,0,1-31.265-30.464ZM-69.6-5.567V-9.84a30.885,30.885,0,0,1-1.948,4.225C-70.828-5.587-70.145-5.574-69.6-5.567ZM15.943-30.4a3.2,3.2,0,0,1,.8.1l3.69.945A3.2,3.2,0,0,1,22.436-27.8a3.2,3.2,0,0,1,.321.847h13.1a3.2,3.2,0,0,1,3.2,3.2v3.507a3.191,3.191,0,0,1-.985,2.31,3.188,3.188,0,0,1,.284,1.319v3.385A3.187,3.187,0,0,1,38-11.766,3.2,3.2,0,0,1,40.736-8.6v3.477a3.226,3.226,0,0,1-.038.5A3.2,3.2,0,0,1,43.483-6.25H45.7a3.2,3.2,0,0,1-1.911-2.93v-2.193a26.3,26.3,0,0,0-2.453-1.6,3.2,3.2,0,0,1-1.65-2.294,3.2,3.2,0,0,1,.811-2.707,23.089,23.089,0,0,0,4.638-9.517,3.2,3.2,0,0,1,3.791-2.349l3.751.823.025.006a3.2,3.2,0,0,1,2.552-1.269h3.812a3.2,3.2,0,0,1,3.2,3.2v2.289h7.077a3.2,3.2,0,0,1,3.2,3.2v3.538a3.2,3.2,0,0,1-2.172,3.031,3.191,3.191,0,0,1,1.013,2.336v3.507a3.2,3.2,0,0,1-1.911,2.93H70.9a3.2,3.2,0,0,1,3.2,3.2V.518a3.2,3.2,0,0,1-3.2,3.2H43.483a3.2,3.2,0,0,1-3.2-3.2V-3.05a3.226,3.226,0,0,1,.038-.5,3.2,3.2,0,0,1-2.785,1.623h-7.23V1.4a3.2,3.2,0,0,1-3.2,3.2H23.355a3.2,3.2,0,0,1-3.2-3.2V-1.923H9.631A3.2,3.2,0,0,1,6.58-4.158v2.877a3.2,3.2,0,0,1-3.2,3.2H-10.191a3.2,3.2,0,0,1-3.2-3.2V-4.91a3.2,3.2,0,0,1,3.2-3.2h1.649v-7.872h-.887a3.2,3.2,0,0,1-3.2-3.2v-2.775A3.2,3.2,0,0,1-10.024-25.1a11,11,0,0,0,4.119-1.474,3.2,3.2,0,0,1,1.722-.5H-.859a3.2,3.2,0,0,1,3.2,3.2V-8.11H3.38A3.2,3.2,0,0,1,6.431-5.875V-8.6a3.2,3.2,0,0,1,3.2-3.2H11.25v-.037a3.2,3.2,0,0,1-.669-.448,25.564,25.564,0,0,0-2.66-2,3.2,3.2,0,0,1-1.57-2.487,3.2,3.2,0,0,1,1.124-2.718,20.411,20.411,0,0,0,5.433-8.722A3.2,3.2,0,0,1,15.943-30.4Z" transform="translate(266.881 494.612)" fill="#fff"/>
    <g id="グループ_645" data-name="グループ 645" transform="translate(237.516 508.125)">
      <path id="パス_268" data-name="パス 268" d="M1.37,16.187H4.429L5.1,4.429,5.258,0H.542L.7,4.429ZM2.9,24.663A2.954,2.954,0,0,0,5.831,21.6,2.919,2.919,0,1,0,0,21.6,2.928,2.928,0,0,0,2.9,24.663Zm10.26-8.476h3.059l.669-11.758L17.047,0H12.331l.159,4.429Zm1.529,8.476A2.954,2.954,0,0,0,17.621,21.6a2.919,2.919,0,1,0-5.831,0A2.928,2.928,0,0,0,14.689,24.663Z" transform="translate(124.438 1.418) rotate(4)" fill="#e8373d"/>
      <path id="パス_268_-_アウトライン" data-name="パス 268 - アウトライン" d="M14.689,24.663A2.954,2.954,0,0,0,17.621,21.6a2.919,2.919,0,1,0-5.831,0,2.928,2.928,0,0,0,2.9,3.059m-11.79,0A2.954,2.954,0,0,0,5.831,21.6,2.919,2.919,0,1,0,0,21.6a2.928,2.928,0,0,0,2.9,3.059m13.319-8.476.669-11.758L17.047,0H12.331l.159,4.429.669,11.758h3.059m-11.79,0L5.1,4.429,5.258,0H.542L.7,4.429,1.37,16.187H4.429m10.26,11.676A6.05,6.05,0,0,1,8.808,23.3,6.211,6.211,0,0,1,7.3,25.99a6.031,6.031,0,0,1-4.4,1.872A6.115,6.115,0,0,1-3.2,21.6,6.341,6.341,0,0,1-1.612,17.35a3.2,3.2,0,0,1-.213-.981L-2.494,4.611q0-.033,0-.067L-2.656.115a3.2,3.2,0,0,1,.895-2.337A3.2,3.2,0,0,1,.542-3.2H5.258a3.2,3.2,0,0,1,2.3.978A3.2,3.2,0,0,1,8.455.115L8.3,4.544q0,.033,0,.067L7.624,16.369a3.2,3.2,0,0,1-.206.963A6.205,6.205,0,0,1,8.81,19.9a6.215,6.215,0,0,1,1.368-2.549,3.2,3.2,0,0,1-.213-.981L9.3,4.611q0-.033,0-.067L9.133.115a3.2,3.2,0,0,1,.895-2.337,3.2,3.2,0,0,1,2.3-.978h4.716a3.2,3.2,0,0,1,2.3.978A3.2,3.2,0,0,1,20.245.115l-.159,4.429q0,.033,0,.067l-.669,11.758a3.2,3.2,0,0,1-.206.963,6.442,6.442,0,0,1-.119,8.659A6.031,6.031,0,0,1,14.689,27.863Z" transform="translate(124.438 1.418) rotate(4)" fill="#fff"/>
      <path id="パス_270" data-name="パス 270" d="M-52.987-25.391v3.7h6.976c.092,1.04.214,2.142.428,3.3l-1.866-.337C-49.132-10.675-52.772-4.77-59.136-1.558A29.057,29.057,0,0,1-55.8,1.41c5.323-3.182,8.995-8.26,11.289-15.114A25.851,25.851,0,0,0-33.253,1.379,19.588,19.588,0,0,1-30.316-1.8C-41.575-8.441-42.4-19.608-42.4-25.391ZM2.848-22.851h-6.7V-27.1h-3.58v4.253H-14.04v3.335H2.848ZM-13.887-10.277c-.551-.857-2.968-4.5-3.824-5.629v-1.56h3.335v-3.365h-3.335V-27.1h-3.365v6.272h-3.855v3.365h3.58a30.547,30.547,0,0,1-4.314,10.28,16.675,16.675,0,0,1,1.652,3.3A24.8,24.8,0,0,0-21.077-10V1.441h3.365V-11.379c.7,1.377,1.438,2.845,1.836,3.824ZM3.4-12.969a28.211,28.211,0,0,0-4.742-6.394l-2.815,1.591A36.44,36.44,0,0,1-.67-13.092l-3.151-.642a18.085,18.085,0,0,1-1.989,4.9,20.26,20.26,0,0,1-2.448-4.712l-2.325.642A23.39,23.39,0,0,0-7.217-17.9l-3.274-1.346a17.37,17.37,0,0,1-4.528,5.966,14.977,14.977,0,0,1,2.478,2.295c.428-.367.887-.765,1.316-1.193A28.731,28.731,0,0,0-8.043-5.9a17.547,17.547,0,0,1-7.434,4.559,14.667,14.667,0,0,1,1.866,2.906A20.893,20.893,0,0,0-5.871-3.21,19.556,19.556,0,0,0,.951,1.532,15.449,15.449,0,0,1,3.491-1.711,18.217,18.217,0,0,1-3.485-6.055,24.346,24.346,0,0,0-.334-12.511a13.5,13.5,0,0,1,.673,1.316ZM19.033-.762c6,0,10.127-4.5,10.127-11.84s-4.13-11.656-10.127-11.656S8.906-19.976,8.906-12.6C8.906-5.26,13.036-.762,19.033-.762Zm0-3.916c-3.365,0-5.507-3.09-5.507-7.924,0-4.865,2.142-7.771,5.507-7.771S24.54-17.467,24.54-12.6C24.54-7.768,22.4-4.678,19.033-4.678ZM36.655-1.191h4.528V-7.554l2.968-3.824L50.025-1.191h4.956L46.843-14.927l6.914-8.934H48.77l-7.5,9.851h-.092v-9.851H36.655Z" transform="translate(59.136 27.104)" fill="#e8373d"/>
      <path id="パス_270_-_アウトライン" data-name="パス 270 - アウトライン" d="M-21.077-27.1v6.272h-3.855v3.365h3.58a30.547,30.547,0,0,1-4.314,10.28,16.675,16.675,0,0,1,1.652,3.3A24.8,24.8,0,0,0-21.077-10V1.441h3.365V-11.379c.7,1.377,1.438,2.845,1.836,3.824l1.989-2.723c-.551-.857-2.968-4.5-3.824-5.629v-1.56h3.335v-3.365h-3.335V-27.1h-3.365m13.645,0v4.253H-14.04v3.335H2.848v-3.335h-6.7V-27.1h-3.58m-45.555,1.713v3.7h6.976c.092,1.04.214,2.142.428,3.3l-1.866-.337C-49.132-10.675-52.772-4.77-59.136-1.558A29.058,29.058,0,0,1-55.8,1.41c5.323-3.182,8.995-8.26,11.289-15.114A25.851,25.851,0,0,0-33.253,1.379,19.588,19.588,0,0,1-30.316-1.8C-41.575-8.441-42.4-19.608-42.4-25.391H-52.987m72.019,1.132c-6,0-10.127,4.283-10.127,11.656,0,7.343,4.13,11.84,10.127,11.84S29.159-5.26,29.159-12.6s-4.13-11.656-10.127-11.656m0,19.58c-3.365,0-5.507-3.09-5.507-7.924,0-4.865,2.142-7.771,5.507-7.771S24.54-17.467,24.54-12.6c0,4.834-2.142,7.924-5.507,7.924M36.655-23.861v22.67h4.528V-7.554l2.968-3.824L50.025-1.191h4.956L46.843-14.927l6.914-8.934H48.77l-7.5,9.851h-.092v-9.851H36.655m-38,4.5-2.815,1.591A36.441,36.441,0,0,1-.67-13.092l-3.151-.642a18.085,18.085,0,0,1-1.989,4.9,20.26,20.26,0,0,1-2.448-4.712l-2.325.642A23.391,23.391,0,0,0-7.217-17.9l-3.274-1.346a17.37,17.37,0,0,1-4.528,5.966,14.978,14.978,0,0,1,2.478,2.295c.428-.367.887-.765,1.316-1.193A28.731,28.731,0,0,0-8.043-5.9a17.547,17.547,0,0,1-7.434,4.559,14.667,14.667,0,0,1,1.866,2.906A20.894,20.894,0,0,0-5.871-3.21,19.556,19.556,0,0,0,.951,1.532,15.449,15.449,0,0,1,3.491-1.711,18.217,18.217,0,0,1-3.485-6.055,24.345,24.345,0,0,0-.334-12.51a13.5,13.5,0,0,1,.673,1.316L3.4-12.969a28.212,28.212,0,0,0-4.742-6.394M-21.077-30.3h3.365a3.2,3.2,0,0,1,3.2,3.2v1.087a3.228,3.228,0,0,1,.471-.034h3.408V-27.1a3.2,3.2,0,0,1,3.2-3.2h3.58a3.2,3.2,0,0,1,3.2,3.2v1.053h3.5a3.2,3.2,0,0,1,3.2,3.2v3.335a3.2,3.2,0,0,1-1.29,2.568c.41.6.785,1.191,1.1,1.766a14.73,14.73,0,0,1,3.475-8.146,12.04,12.04,0,0,1,4.346-3.1,13.742,13.742,0,0,1,5.351-1.034,13.7,13.7,0,0,1,5.356,1.04,12.063,12.063,0,0,1,4.343,3.1A15.76,15.76,0,0,1,32.359-12.6a16.081,16.081,0,0,1-3.6,10.778,12.158,12.158,0,0,1-4.332,3.178,13.4,13.4,0,0,1-5.391,1.084,13.4,13.4,0,0,1-5.391-1.084A12.158,12.158,0,0,1,9.309-1.825a15.382,15.382,0,0,1-3.532-9A3.2,3.2,0,0,1,5-10.2L1.945-8.427a3.2,3.2,0,0,1-.544.251q-.346.745-.728,1.456a14.538,14.538,0,0,0,3.84,1.977A3.2,3.2,0,0,1,6.62-2.381,3.2,3.2,0,0,1,5.665.637a12.5,12.5,0,0,0-1.9,2.427A3.2,3.2,0,0,1-.272,4.489a22.536,22.536,0,0,1-5.69-3.411,25.014,25.014,0,0,1-6.567,3.5,3.2,3.2,0,0,1-3.205-.617,3.186,3.186,0,0,1-1.976.683h-3.365a3.2,3.2,0,0,1-3.2-3.2V-.694q-.131-.011-.262-.033a3.2,3.2,0,0,1-2.537-2.229A13.516,13.516,0,0,0-28.385-5.5a3.2,3.2,0,0,1,.143-3.587,22.408,22.408,0,0,0,2.625-5.254,3.2,3.2,0,0,1-2.515-3.127v-3.365a3.2,3.2,0,0,1,3.2-3.2h.655V-27.1A3.2,3.2,0,0,1-21.077-30.3ZM19.033-7.878a1.543,1.543,0,0,0,1.387-.775,6.869,6.869,0,0,0,.92-3.949,6.557,6.557,0,0,0-.893-3.846,1.578,1.578,0,0,0-1.414-.725,1.578,1.578,0,0,0-1.414.725,6.557,6.557,0,0,0-.893,3.846,7.512,7.512,0,0,0,.92,3.949A1.543,1.543,0,0,0,19.033-7.878ZM-12.176-6.526q-.1-.191-.207-.385L-13.122-5.9Q-12.633-6.2-12.176-6.526Zm-40.81-22.065H-42.4a3.2,3.2,0,0,1,3.2,3.2,29.7,29.7,0,0,0,1.62,10.359,19.956,19.956,0,0,0,3.123,5.554,21,21,0,0,0,5.767,4.919,3.2,3.2,0,0,1,1.566,2.522A3.2,3.2,0,0,1-28.305.687a16.946,16.946,0,0,0-2.3,2.487,3.2,3.2,0,0,1-4.3.945A27.355,27.355,0,0,1-44.556-5.76a30.3,30.3,0,0,1-1.893,2.9,26.482,26.482,0,0,1-7.71,7.022A3.2,3.2,0,0,1-58.2,3.524a26.381,26.381,0,0,0-2.839-2.512,3.2,3.2,0,0,1-1.282-2.843,3.2,3.2,0,0,1,1.746-2.584A16.292,16.292,0,0,0-54.2-10.1a25.738,25.738,0,0,0,3.425-8.391h-2.209a3.2,3.2,0,0,1-3.2-3.2v-3.7A3.2,3.2,0,0,1-52.987-28.591Zm89.641,1.53h4.528a3.2,3.2,0,0,1,3.2,3.2v.482L46.224-25.8a3.2,3.2,0,0,1,2.547-1.262h4.987A3.2,3.2,0,0,1,56.63-25.27a3.2,3.2,0,0,1-.342,3.368L50.7-14.688l7.03,11.866A3.2,3.2,0,0,1,57.761.394a3.2,3.2,0,0,1-2.78,1.616H50.025a3.2,3.2,0,0,1-2.772-1.6l-2.87-4.977v3.378a3.2,3.2,0,0,1-3.2,3.2H36.655a3.2,3.2,0,0,1-3.2-3.2v-22.67A3.2,3.2,0,0,1,36.655-27.061Z" transform="translate(59.136 27.104)" fill="#fff"/>
    </g>
  </g>
</svg>
